<svg width="18" height="18" viewBox="0 0 18 18" fill="none" xmlns="http://www.w3.org/2000/svg">
<g clip-path="url(#clip0_1_5356)">
<path d="M13.2589 17C10.1908 17 7.35932 14.5599 5.15001 12.3033C1.71971 8.80082 0.435997 5.77044 1.22453 3.03924C1.32266 2.69898 1.50828 2.38357 1.76067 2.12698L2.52594 1.34859C2.97812 0.888662 3.71962 0.883084 4.17888 1.33642L6.86819 3.9941C7.30621 4.42665 7.31127 5.13556 6.87932 5.5747L6.24151 6.22378C5.72813 7.33786 7.47211 9.33226 8.13471 9.95243C8.13723 9.95497 8.14027 9.9575 8.1428 9.96054C10.3288 12.1208 11.2818 11.6623 11.3495 11.6228L12.1629 10.7957C12.5943 10.3566 13.3014 10.3515 13.7394 10.7846L16.6523 13.6628C17.1111 14.1162 17.1166 14.8596 16.6644 15.32L15.7884 16.2115C15.5294 16.4747 15.2118 16.6668 14.8689 16.7678C14.3267 16.927 13.7895 16.9995 13.2599 16.9995L13.2589 17Z" stroke="#2D81F1" stroke-miterlimit="10"/>
</g>
<defs>
<clipPath id="clip0_1_5356">
<rect width="18" height="18" fill="white"/>
</clipPath>
</defs>
</svg>
