<svg width="20" height="20" viewBox="0 0 20 20" fill="none" xmlns="http://www.w3.org/2000/svg">
<g clip-path="url(#clip0_1_5736)">
<path fill-rule="evenodd" clip-rule="evenodd" d="M7.91441 1.15122C2.90556 1.69889 -0.431816 6.28456 0.469496 11.4492C1.38196 16.6756 6.27868 20.5049 11.3967 19.9456C16.5147 19.3859 19.8262 14.6592 18.8039 9.44489C17.7941 4.29256 12.9236 0.603891 7.91441 1.15122Z" fill="#F2B306"/>
<path fill-rule="evenodd" clip-rule="evenodd" d="M8.82832 0.104349C3.81914 0.652017 0.481758 5.23768 1.38307 10.4023C2.29553 15.6287 7.19225 19.458 12.3103 18.8987C17.4283 18.339 20.7398 13.6127 19.7175 8.39801C18.7077 3.24568 13.8372 -0.442984 8.82832 0.104349Z" fill="#FDE113"/>
<path fill-rule="evenodd" clip-rule="evenodd" d="M9.17535 1.97933C5.16552 2.41767 2.49371 6.08867 3.21535 10.223C3.94584 14.407 7.86552 17.4723 11.9629 17.0247C16.0599 16.5767 18.7108 12.793 17.8927 8.61866C17.0842 4.494 13.1852 1.54133 9.17535 1.97933Z" fill="#F6C60C"/>
<path fill-rule="evenodd" clip-rule="evenodd" d="M8.76153 2.18911C4.7517 2.62711 2.07989 6.29844 2.80153 10.4328C3.53203 14.6164 7.4517 17.6821 11.5491 17.2341C15.6461 16.7864 18.2969 13.0024 17.4789 8.82844C16.6704 4.70344 12.7714 1.75078 8.76153 2.18911Z" fill="#FFD328"/>
<path d="M5.40339 9.65933L6.68139 9.65933L8.1529 13.4595L9.6379 13.4595L10.0987 8.42831L11.9059 13.4595L13.3909 13.4595L13.8454 9.65933L15.1234 9.65933L14.9599 8.43723L13.9879 8.43723L14.254 6.18926L12.67 6.18926L12.5119 8.43723L11.3689 8.43723L10.573 6.18926L8.94404 6.18926L8.74085 8.43723L7.60685 8.43723L6.84704 6.18926L5.34404 6.18926L6.21185 8.43723L5.23985 8.43723L5.40339 9.65933ZM12.3186 11.0955L11.8114 9.65933L12.4234 9.65933L12.3186 11.0955ZM8.01339 9.65933L8.63439 9.65933L8.50616 11.1223L8.01339 9.65933Z" fill="white"/>
</g>
<defs>
<clipPath id="clip0_1_5736">
<rect width="20" height="20" fill="white"/>
</clipPath>
</defs>
</svg>
