<svg width="30" height="30" viewBox="0 0 30 30" fill="none" xmlns="http://www.w3.org/2000/svg">
<g clip-path="url(#clip0_1_5750)">
<path fill-rule="evenodd" clip-rule="evenodd" d="M20.8 27.7075L10.0636 17.2636C9.347 17.4807 8.58747 17.3075 7.5075 17.3075C3.49213 17.3075 0 14.1079 0 9.5075C0 5.49213 3.49213 2 7.5075 2C12.1079 2 15.3075 5.49213 15.3075 9.5075C15.3075 10.5875 15.4807 11.347 15.2636 12.0636L15.9575 12.7575V15.65H18.2325L18.85 17.925H21.125V20.2H23.1075V22.5075H26V27.7075H20.8Z" fill="#F9E45A"/>
<path fill-rule="evenodd" clip-rule="evenodd" d="M21.0015 26.247L12.0201 17.2981C11.6623 16.9416 11.6623 16.3631 12.0201 16.0065C12.3782 15.3575 12.9587 15.3575 13.3165 16.0065L23.5014 26.1547L21.0015 26.247Z" fill="#F2B409"/>
<path fill-rule="evenodd" clip-rule="evenodd" d="M5.5574 5.60742C6.92695 5.60742 7.5074 6.77287 7.5074 7.55742C7.5074 8.92697 6.92695 9.50742 5.5574 9.50742C4.77285 9.50742 3.8999 8.92697 3.8999 7.55742C3.8999 6.77287 4.77285 5.60742 5.5574 5.60742Z" fill="#F2B409"/>
<path fill-rule="evenodd" clip-rule="evenodd" d="M6.17512 6.2251C7.25217 6.2251 8.12512 7.09805 8.12512 8.1751C8.12512 9.25215 7.25217 9.8326 6.17512 9.8326C5.09807 9.8326 3.93262 9.25215 3.93262 8.1751C3.93262 7.09805 5.09807 6.2251 6.17512 6.2251Z" fill="white"/>
</g>
<defs>
<clipPath id="clip0_1_5750">
<rect width="26" height="26" fill="white" transform="translate(0 2)"/>
</clipPath>
</defs>
</svg>
