<svg width="24" height="24" viewBox="0 0 24 24" fill="none" xmlns="http://www.w3.org/2000/svg">
<g clip-path="url(#clip0_1_5743)">
<path fill-rule="evenodd" clip-rule="evenodd" d="M9.49725 1.38171C3.48662 2.03891 -0.518228 7.54171 0.563346 13.7393C1.6583 20.0109 7.53436 24.6061 13.676 23.9349C19.8176 23.2633 23.7914 17.5913 22.5647 11.3341C21.3529 5.15131 15.5083 0.724913 9.49725 1.38171Z" fill="#F2B306"/>
<path fill-rule="evenodd" clip-rule="evenodd" d="M10.5938 0.125122C4.58282 0.782322 0.577963 6.28512 1.65954 12.4827C2.75449 18.7543 8.63056 23.3495 14.7722 22.6783C20.9138 22.0067 24.8876 16.3351 23.6608 10.0775C22.449 3.89472 16.6045 -0.531679 10.5938 0.125122Z" fill="#FDE113"/>
<path fill-rule="evenodd" clip-rule="evenodd" d="M11.0105 2.37515C6.19872 2.90115 2.99255 7.30635 3.85852 12.2676C4.73511 17.2884 9.43872 20.9668 14.3556 20.4295C19.272 19.8919 22.453 15.3515 21.4714 10.3423C20.5011 5.39275 15.8223 1.84955 11.0105 2.37515Z" fill="#F6C60C"/>
<path fill-rule="evenodd" clip-rule="evenodd" d="M10.5139 2.62669C5.70213 3.15229 2.49597 7.55789 3.36194 12.5191C4.23853 17.5395 8.94213 21.2183 13.859 20.6807C18.7754 20.1435 21.9564 15.6027 20.9748 10.5939C20.0046 5.64389 15.3257 2.10069 10.5139 2.62669Z" fill="#FFD328"/>
<path d="M6.40449 11.9966L7.93809 11.9966L9.70391 16.5568L11.4859 16.5568L12.0388 10.5194L14.2075 16.5568L15.9895 16.5568L16.5349 11.9966L18.0685 11.9966L17.8722 10.5301L16.7058 10.5301L17.0253 7.83251L15.1245 7.83251L14.9346 10.5301L13.563 10.5301L12.6081 7.83251L10.6533 7.83252L10.4094 10.5301L9.04865 10.5301L8.13687 7.83252L6.33327 7.83252L7.37465 10.5301L6.20825 10.5301L6.40449 11.9966ZM14.7027 13.72L14.0941 11.9966L14.8285 11.9966L14.7027 13.72ZM9.53649 11.9966L10.2817 11.9966L10.1278 13.7522L9.53649 11.9966Z" fill="white"/>
</g>
<defs>
<clipPath id="clip0_1_5743">
<rect width="24" height="24" fill="white"/>
</clipPath>
</defs>
</svg>
