<svg width="62" height="62" viewBox="0 0 62 62" fill="none" xmlns="http://www.w3.org/2000/svg">
<path d="M0 6C0 2.68629 2.68629 0 6 0H56C59.3137 0 62 2.68629 62 6V56C62 59.3137 59.3137 62 56 62H6C2.68629 62 0 59.3137 0 56V6Z" fill="#E1E4F5" fill-opacity="0.2"/>
<g clip-path="url(#clip0_1_5284)">
<path d="M20 19V26.6098C20 26.6098 20 31.0805 24.8649 31.0805C30.0216 31.0805 30.0216 26.6098 30.0216 26.6098V19" stroke="#6F717D" stroke-width="1.25"/>
<path d="M24.8647 19V43.0976" stroke="#6F717D" stroke-width="1.25"/>
<path fill-rule="evenodd" clip-rule="evenodd" d="M37.1892 19C40.1678 19 42.054 21.1295 42.054 23.4707V26.6098C42.054 29.2364 40.1678 31.0805 37.1892 31.0805C34.7944 31.0805 32.6162 29.2364 32.6162 26.6098V23.4707C32.6162 21.1295 34.7944 19 37.1892 19Z" stroke="#6F717D" stroke-width="1.25"/>
<path d="M37.189 30.7317V43.0975" stroke="#6F717D" stroke-width="1.25"/>
</g>
<defs>
<clipPath id="clip0_1_5284">
<rect width="24" height="26" fill="white" transform="translate(19 18)"/>
</clipPath>
</defs>
</svg>
