<svg width="17" height="20" viewBox="0 0 17 20" fill="none" xmlns="http://www.w3.org/2000/svg">
<g clip-path="url(#clip0_1_5314)">
<path fill-rule="evenodd" clip-rule="evenodd" d="M1.92453 0C1.92453 0 0 0 0 1.54545V12.4545C0 12.4545 0 14.5455 1.92453 14.5455H3.56038H9.62264C9.62264 14.5455 11.2585 14.5455 11.2585 12.4545V10.6364V5.45455L5.48491 0H1.92453Z" fill="#CDD1D7"/>
<path d="M15.6904 15.2193C15.6904 17.4006 13.9211 19.1693 11.738 19.1693C9.55493 19.1693 7.78564 17.4006 7.78564 15.2193C7.78564 13.038 9.55493 11.2693 11.738 11.2693C13.9211 11.2693 15.6904 13.038 15.6904 15.2193Z" fill="white" stroke="#888888"/>
<mask id="path-3-inside-1_1_5314" fill="white">
<path fill-rule="evenodd" clip-rule="evenodd" d="M11.7077 15.1515H13.3115C13.5771 15.1515 13.7926 15.3551 13.7926 15.606C13.7926 15.8569 13.5771 15.7879 13.3115 15.7879H11.7077C11.4421 15.7879 11.2266 15.8569 11.2266 15.606C11.2266 15.3551 11.4421 15.1515 11.7077 15.1515Z"/>
</mask>
<path fill-rule="evenodd" clip-rule="evenodd" d="M11.7077 15.1515H13.3115C13.5771 15.1515 13.7926 15.3551 13.7926 15.606C13.7926 15.8569 13.5771 15.7879 13.3115 15.7879H11.7077C11.4421 15.7879 11.2266 15.8569 11.2266 15.606C11.2266 15.3551 11.4421 15.1515 11.7077 15.1515Z" fill="white"/>
<path d="M11.7077 16.1515H13.3115V14.1515H11.7077V16.1515ZM13.3115 16.1515C13.0791 16.1515 12.7926 15.9602 12.7926 15.606H14.7926C14.7926 14.75 14.075 14.1515 13.3115 14.1515V16.1515ZM12.7926 15.606C12.7926 15.5392 12.8058 15.3139 12.9912 15.0946C13.1804 14.8708 13.4104 14.8171 13.4919 14.8039C13.5614 14.7926 13.6036 14.7984 13.5431 14.7957C13.5158 14.7945 13.4075 14.7879 13.3115 14.7879V16.7879C13.3483 16.7879 13.3665 16.7898 13.4543 16.7937C13.5089 16.7962 13.6547 16.8035 13.8114 16.7782C13.98 16.7509 14.2804 16.6674 14.5184 16.386C14.7525 16.1091 14.7926 15.7983 14.7926 15.606H12.7926ZM13.3115 14.7879H11.7077V16.7879H13.3115V14.7879ZM11.7077 14.7879C11.6117 14.7879 11.5034 14.7945 11.4761 14.7957C11.4156 14.7984 11.4577 14.7926 11.5273 14.8039C11.6088 14.8171 11.8388 14.8708 12.028 15.0946C12.2134 15.3139 12.2266 15.5392 12.2266 15.606H10.2266C10.2266 15.7983 10.2667 16.1091 10.5008 16.386C10.7387 16.6674 11.0392 16.7509 11.2078 16.7782C11.3644 16.8035 11.5103 16.7962 11.5649 16.7937C11.6527 16.7898 11.6709 16.7879 11.7077 16.7879V14.7879ZM12.2266 15.606C12.2266 15.9602 11.9401 16.1515 11.7077 16.1515V14.1515C10.9441 14.1515 10.2266 14.75 10.2266 15.606H12.2266Z" fill="#888888" fill-opacity="0.5" mask="url(#path-3-inside-1_1_5314)"/>
<path d="M11.4016 13.655C11.4016 13.655 11.4019 13.6558 11.4022 13.6575L11.4016 13.655Z" fill="white" stroke="#888888" stroke-linecap="round"/>
<path d="M7.28614 7.46156L5.26233 5.9231L3.23853 7.46156" stroke="white" stroke-linecap="round"/>
<path d="M5.26196 6.30774L5.26196 10" stroke="white" stroke-linecap="round"/>
</g>
<defs>
<clipPath id="clip0_1_5314">
<rect width="17" height="20" fill="white"/>
</clipPath>
</defs>
</svg>
