<svg width="20" height="20" viewBox="0 0 20 20" fill="none" xmlns="http://www.w3.org/2000/svg">
<g clip-path="url(#clip0_1_5232)">
<path d="M4.8792 4.15735C2.99697 6.04268 2.99697 9.09779 4.8792 10.9831" stroke="#6F717D" stroke-linecap="round" stroke-linejoin="round"/>
<path d="M9.01685 15.1208C10.9022 17.0062 13.9573 17.0062 15.8426 15.1208" stroke="#6F717D" stroke-linecap="round" stroke-linejoin="round"/>
<path d="M4.87915 10.9832L9.01693 15.1209" stroke="#6F717D" stroke-linecap="round" stroke-linejoin="round"/>
<path d="M7.66368 9.58006C7.12545 9.04184 7.12545 8.16762 7.66368 7.62939" stroke="#6F717D" stroke-linecap="round" stroke-linejoin="round"/>
<path d="M12.3706 12.3364C11.8324 12.8746 10.9581 12.8746 10.4199 12.3364" stroke="#6F717D" stroke-linecap="round" stroke-linejoin="round"/>
<path d="M7.66357 9.57996L10.42 12.3364" stroke="#6F717D" stroke-linecap="round" stroke-linejoin="round"/>
<path d="M5.56982 3.46667L8.69649 6.59334" stroke="#6F717D" stroke-linecap="round" stroke-linejoin="round"/>
<path d="M16.5334 14.4303L13.4067 11.3036" stroke="#6F717D" stroke-linecap="round" stroke-linejoin="round"/>
<path d="M4.87915 4.15734L5.56982 3.46667" stroke="#6F717D" stroke-linecap="round" stroke-linejoin="round"/>
<path d="M7.66357 7.62938L8.69646 6.59338" stroke="#6F717D" stroke-linecap="round" stroke-linejoin="round"/>
<path d="M12.3706 12.3365L13.4066 11.3036" stroke="#6F717D" stroke-linecap="round" stroke-linejoin="round"/>
<path d="M15.8428 15.1208L16.5334 14.4302" stroke="#6F717D" stroke-linecap="round" stroke-linejoin="round"/>
</g>
<defs>
<clipPath id="clip0_1_5232">
<rect width="14" height="14" fill="white" transform="translate(3 3)"/>
</clipPath>
</defs>
</svg>
