<svg width="62" height="62" viewBox="0 0 62 62" fill="none" xmlns="http://www.w3.org/2000/svg">
<path d="M0 6C0 2.68629 2.68629 0 6 0H56C59.3137 0 62 2.68629 62 6V56C62 59.3137 59.3137 62 56 62H6C2.68629 62 0 59.3137 0 56V6Z" fill="#E1E4F5" fill-opacity="0.2"/>
<path fill-rule="evenodd" clip-rule="evenodd" d="M20.4607 26.9375H40.9398C42.5582 26.9375 43.87 28.2805 43.87 29.6375V35.9375C43.87 37.5945 42.5582 38.9375 40.9398 38.9375H20.4607C19.1353 38.9375 17.8235 37.5945 17.8235 35.9375V29.6375C17.8235 28.2805 19.1353 26.9375 20.4607 26.9375Z" stroke="#6F717D" stroke-width="1.25"/>
<path d="M23.8372 38.6666V42.6666" stroke="#6F717D" stroke-width="1.25"/>
<path d="M37.814 38.6667V42.6667" stroke="#6F717D" stroke-width="1.25"/>
<path d="M22.2651 26.6666L24.4884 18.6666H36.8605L39.4977 26.6666" stroke="#6F717D" stroke-width="1.25"/>
<ellipse cx="23.9999" cy="33.0312" rx="1.23529" ry="1.21875" fill="#6F717D"/>
<ellipse cx="37.1765" cy="33.0312" rx="1.23529" ry="1.21875" fill="#6F717D"/>
</svg>
