<svg width="62" height="62" viewBox="0 0 62 62" fill="none" xmlns="http://www.w3.org/2000/svg">
<path d="M0 6C0 2.68629 2.68629 0 6 0H56C59.3137 0 62 2.68629 62 6V56C62 59.3137 59.3137 62 56 62H6C2.68629 62 0 59.3137 0 56V6Z" fill="#E1E4F5" fill-opacity="0.2"/>
<path fill-rule="evenodd" clip-rule="evenodd" d="M31.1822 18.8064C35.0961 18.8064 38.0588 22.1394 38.0588 25.92V42.2903H24.8235V25.92C24.8235 22.1394 27.7862 18.8064 31.1822 18.8064Z" stroke="#6F717D" stroke-width="1.25"/>
<path fill-rule="evenodd" clip-rule="evenodd" d="M21.2941 26.0322C23.2434 26.0322 24.8235 28.0223 24.8235 29.882V42.2903H17.7646V29.882C17.7646 28.0223 19.3447 26.0322 21.2941 26.0322Z" stroke="#6F717D" stroke-width="1.25"/>
<path fill-rule="evenodd" clip-rule="evenodd" d="M41.5882 26.0322C43.5376 26.0322 45.1177 28.0223 45.1177 29.882V42.2903H38.0588V29.882C38.0588 28.0223 39.6389 26.0322 41.5882 26.0322Z" stroke="#6F717D" stroke-width="1.25"/>
<path fill-rule="evenodd" clip-rule="evenodd" d="M24.8235 33.2581H38.0588V42.2903H24.8235V33.2581Z" stroke="#6F717D" stroke-width="1.25"/>
</svg>
