<svg width="62" height="62" viewBox="0 0 62 62" fill="none" xmlns="http://www.w3.org/2000/svg">
<path d="M0 6C0 2.68629 2.68629 0 6 0H56C59.3137 0 62 2.68629 62 6V56C62 59.3137 59.3137 62 56 62H6C2.68629 62 0 59.3137 0 56V6Z" fill="#E1E4F5" fill-opacity="0.2"/>
<path d="M20.0935 24.2969H25.8619L27.5925 33.4863H36.5047L39.7062 42.2969L43.4268 41.0653" stroke="#6F717D" stroke-width="1.25"/>
<path d="M27.1951 24.2969H29.9169C30.9949 24.3943 31.6534 24.2969 33.8181 29.2969H38.3545" stroke="#6F717D" stroke-width="1.25"/>
<path d="M35.311 36.1925C35.311 40.9386 31.948 44.2969 27.4656 44.2969C22.9832 44.2969 19.0791 40.9386 19.0791 36.1925C19.0791 33.2785 20.9531 30.6418 23.595 29.2969" stroke="#6F717D" stroke-width="1.25"/>
<path d="M26.7583 18.5C26.7583 17.4645 27.5978 16.625 28.6333 16.625C29.6688 16.625 30.5083 17.4645 30.5083 18.5V20.0625C30.5083 21.098 29.6688 21.9375 28.6333 21.9375C27.5978 21.9375 26.7583 21.098 26.7583 20.0625V18.5Z" stroke="#6F717D" stroke-width="1.25"/>
</svg>
