<svg width="20" height="20" viewBox="0 0 20 20" fill="none" xmlns="http://www.w3.org/2000/svg">
<g clip-path="url(#clip0_4_8397)">
<path d="M4.87907 4.15723C2.99685 6.04256 2.99685 9.09767 4.87907 10.983" stroke="#6F717D" stroke-linecap="round" stroke-linejoin="round"/>
<path d="M9.01685 15.1208C10.9022 17.0062 13.9573 17.0062 15.8426 15.1208" stroke="#6F717D" stroke-linecap="round" stroke-linejoin="round"/>
<path d="M4.87915 10.9832L9.01693 15.1209" stroke="#6F717D" stroke-linecap="round" stroke-linejoin="round"/>
<path d="M7.66355 9.58006C7.12533 9.04184 7.12533 8.16762 7.66355 7.62939" stroke="#6F717D" stroke-linecap="round" stroke-linejoin="round"/>
<path d="M12.3707 12.3364C11.8325 12.8746 10.9583 12.8746 10.42 12.3364" stroke="#6F717D" stroke-linecap="round" stroke-linejoin="round"/>
<path d="M7.66357 9.58008L10.42 12.3365" stroke="#6F717D" stroke-linecap="round" stroke-linejoin="round"/>
<path d="M5.56982 3.46655L8.69649 6.59322" stroke="#6F717D" stroke-linecap="round" stroke-linejoin="round"/>
<path d="M16.5333 14.4301L13.4066 11.3035" stroke="#6F717D" stroke-linecap="round" stroke-linejoin="round"/>
<path d="M4.87915 4.15722L5.56982 3.46655" stroke="#6F717D" stroke-linecap="round" stroke-linejoin="round"/>
<path d="M7.66357 7.62926L8.69646 6.59326" stroke="#6F717D" stroke-linecap="round" stroke-linejoin="round"/>
<path d="M12.3707 12.3364L13.4067 11.3035" stroke="#6F717D" stroke-linecap="round" stroke-linejoin="round"/>
<path d="M15.8427 15.1208L16.5333 14.4302" stroke="#6F717D" stroke-linecap="round" stroke-linejoin="round"/>
</g>
<defs>
<clipPath id="clip0_4_8397">
<rect width="14" height="14" fill="white" transform="translate(3 3)"/>
</clipPath>
</defs>
</svg>
