<svg width="10" height="10" viewBox="0 0 10 10" fill="none" xmlns="http://www.w3.org/2000/svg">
<path fill-rule="evenodd" clip-rule="evenodd" d="M1.75984 0.345627C1.36932 -0.0448968 0.736152 -0.0448966 0.345627 0.345628C-0.0448968 0.736152 -0.0448966 1.36932 0.345628 1.75984L3.58589 5.0001L0.345628 8.24036C-0.0448966 8.63088 -0.0448968 9.26405 0.345627 9.65457C0.736152 10.0451 1.36932 10.0451 1.75984 9.65457L5.0001 6.41431L8.24036 9.65457C8.63089 10.0451 9.26405 10.0451 9.65458 9.65457C10.0451 9.26405 10.0451 8.63088 9.65458 8.24036L6.41432 5.0001L9.65458 1.75984C10.0451 1.36932 10.0451 0.736152 9.65458 0.345628C9.26405 -0.0448966 8.63089 -0.0448968 8.24036 0.345627L5.0001 3.58589L1.75984 0.345627Z" fill="#A7A9B0"/>
</svg>
