<svg width="19" height="20" viewBox="0 0 19 20" fill="none" xmlns="http://www.w3.org/2000/svg">
<path fill-rule="evenodd" clip-rule="evenodd" d="M12.5 2C12.2239 2 12 2.22386 12 2.5C12 2.77614 12.2239 3 12.5 3H16.5C16.746 3 17.1322 3.08345 17.4446 3.32446C17.7338 3.54756 18 3.93461 18 4.64286V4.65295V4.66315V4.67345V4.68384V4.69434V4.70494V4.71563V4.72643V4.73732V4.74831V4.7594V4.77059V4.78188V4.79326V4.80474V4.81631V4.82798V4.83975V4.85161V4.86356V4.87561V4.88776V4.89999V4.91233V4.92475V4.93727V4.94988V4.96258V4.97537V4.98826V5.00123V5.0143V5.02746V5.0407V5.05404V5.06747V5.08098V5.09458V5.10827V5.12205V5.13592V5.14987V5.16392V5.17804V5.19226V5.20656V5.22094V5.23541V5.24997V5.26461V5.27933V5.29414V5.30903V5.324V5.33906V5.3542V5.36942V5.38472V5.40011V5.41557V5.43112V5.44674V5.46245V5.47824V5.4941V5.51005V5.52607V5.54217V5.55835V5.5746V5.59094V5.60735V5.62384V5.6404V5.65704V5.67375V5.69054V5.70741V5.72435V5.74136V5.75845V5.77561V5.79284V5.81015V5.82752V5.84497V5.8625V5.88009V5.89776V5.91549V5.9333V5.95117V5.96912V5.98713V6.00522V6.02337V6.04159V6.05988V6.07823V6.09665V6.11515V6.1337V6.15232V6.17101V6.18977V6.20859V6.22747V6.24642V6.26543V6.28451V6.30365V6.32285V6.34212V6.36144V6.38083V6.40028V6.4198V6.43937V6.45901V6.4787V6.49846V6.51827V6.53815V6.55808V6.57807V6.59812V6.61823V6.63839V6.65862V6.67889V6.69923V6.71962V6.74007V6.76057V6.78113V6.80175V6.82241V6.84314V6.86391V6.88474V6.90562V6.92656V6.94754V6.96858V6.98968V7.01082V7.03201V7.05326V7.07455V7.09589V7.11729V7.13873V7.16022V7.18177V7.20335V7.22499V7.24668V7.26841V7.29019V7.31201V7.33388V7.3558V7.37776V7.39977V7.42182V7.44392V7.46606V7.48825V7.51048V7.53275V7.55506V7.57742V7.59982V7.62226V7.64474V7.66726V7.68983V7.71243V7.73507V7.75776V7.78048V7.80324V7.82604V7.84888V7.87176V7.89467V7.91762V7.94061V7.96363V7.9867V8.00979V8.03292V8.05609V8.07929V8.10253V8.1258V8.14911V8.17244V8.19581V8.21922V8.24265V8.26612V8.28962V8.31315V8.33671V8.36031V8.38393V8.40758V8.43127V8.45498V8.47872V8.50249V8.52629V8.55011V8.57397V8.59785V8.62175V8.64569V8.66965V8.69363V8.71765V8.74168V8.76574V8.78983V8.81394V8.83807V8.86223V8.88641V8.91061V8.93484V8.95909V8.98336V9.00765V9.03196V9.05629V9.08064V9.10501V9.12941V9.15382V9.17825V9.2027V9.22716V9.25165V9.27615V9.30067V9.32521V9.34976V9.37433V9.39892V9.42352V9.44813V9.47276V9.49741V9.52207V9.54674V9.57143V9.59613V9.62084V9.64557V9.6703V9.69505V9.71981V9.74458V9.76936V9.79415V9.81896V9.84377V9.86859V9.89342V9.91826V9.9431V9.96796V9.99282V10.0177V10.0426V10.0674V10.0923V10.1172V10.1421V10.167V10.1919V10.2169V10.2418V10.2667V10.2916V10.3166V10.3415V10.3664V10.3914V10.4163V10.4412V10.4662V10.4911V10.5161V10.541V10.5659V10.5909V10.6158V10.6408V10.6657V10.6906V10.7156V10.7405V10.7654V10.7903V10.8152V10.8402V10.8651V10.89V10.9149V10.9398V10.9647V10.9895V11.0144V11.0393V11.0641V11.089V11.1138V11.1387V11.1635V11.1883V11.2131V11.2379V11.2627V11.2875V11.3123V11.337V11.3618V11.3865V11.4112V11.4359V11.4606V11.4853V11.51V11.5347V11.5593V11.5839V11.6085V11.6331V11.6577V11.6823V11.7068V11.7314V11.7559V11.7804V11.8049V11.8293V11.8538V11.8782V11.9026V11.927V11.9514V11.9757V12.0001V12.0244V12.0487V12.0729V12.0972V12.1214V12.1456V12.1698V12.1939V12.218V12.2422V12.2662V12.2903V12.3143V12.3383V12.3623V12.3863V12.4102V12.4341V12.458V12.4818V12.5057V12.5294V12.5532V12.577V12.6007V12.6243V12.648V12.6716V12.6952V12.7188V12.7423V12.7658V12.7892V12.8127V12.8361V12.8594V12.8828V12.9061V12.9293V12.9526V12.9758V12.9989V13.022V13.0451V13.0682V13.0912V13.1142V13.1371V13.16V13.1829V13.2058V13.2285V13.2513V13.274V13.2967V13.3193V13.3419V13.3645V13.387V13.4095V13.4319V13.4543V13.4767V13.499V13.5212V13.5435V13.5656V13.5878V13.6099V13.6319V13.6539V13.6759V13.6978V13.7196V13.7415V13.7632V13.785V13.8066V13.8283V13.8498V13.8714V13.8929V13.9143V13.9357V13.957V13.9783V13.9995V14.0207V14.0419V14.063V14.084V14.105V14.1259V14.1468V14.1676V14.1884V14.2091V14.2297V14.2503V14.2709V14.2914V14.3118V14.3322V14.3525V14.3728V14.393V14.4132V14.4333V14.4533V14.4733V14.4932V14.5131V14.5329V14.5526V14.5723V14.5919V14.6115V14.631V14.6505V14.6698V14.6892V14.7084V14.7276V14.7467V14.7658V14.7848V14.8037V14.8226V14.8414V14.8602V14.8789V14.8975V14.916V14.9345V14.9529V14.9713V14.9895V15.0077V15.0259V15.044V15.062V15.0799V15.0978V15.1156V15.1333V15.1509V15.1685V15.186V15.2035V15.2208V15.2381V15.2554V15.2725V15.2896V15.3066V15.3235V15.3404V15.3571C18 15.6409 17.9167 16.0728 17.685 16.4175C17.4713 16.7355 17.122 17 16.5 17H16.4906H16.4812H16.4719H16.4625H16.4531H16.4437H16.4343H16.4249H16.4155H16.4061H16.3967H16.3873H16.3779H16.3685H16.3591H16.3496H16.3402H16.3308H16.3214H16.312H16.3025H16.2931H16.2837H16.2742H16.2648H16.2554H16.2459H16.2365H16.2271H16.2176H16.2082H16.1987H16.1893H16.1798H16.1704H16.1609H16.1515H16.142H16.1326H16.1231H16.1137H16.1042H16.0948H16.0853H16.0758H16.0664H16.0569H16.0475H16.038H16.0286H16.0191H16.0096H16.0002H15.9907H15.9812H15.9718H15.9623H15.9529H15.9434H15.9339H15.9245H15.915H15.9056H15.8961H15.8866H15.8772H15.8677H15.8583H15.8488H15.8393H15.8299H15.8204H15.811H15.8015H15.7921H15.7826H15.7732H15.7637H15.7543H15.7448H15.7354H15.7259H15.7165H15.707H15.6976H15.6882H15.6787H15.6693H15.6598H15.6504H15.641H15.6315H15.6221H15.6127H15.6033H15.5938H15.5844H15.575H15.5656H15.5562H15.5468H15.5374H15.528H15.5186H15.5092H15.4998H15.4904H15.481H15.4716H15.4622H15.4528H15.4434H15.434H15.4247H15.4153H15.4059H15.3966H15.3872H15.3778H15.3685H15.3591H15.3498H15.3404H15.3311H15.3217H15.3124H15.3031H15.2937H15.2844H15.2751H15.2658H15.2565H15.2472H15.2379H15.2286H15.2193H15.21H15.2007H15.1914H15.1821H15.1729H15.1636H15.1543H15.1451H15.1358H15.1265H15.1173H15.1081H15.0988H15.0896H15.0804H15.0711H15.0619H15.0527H15.0435H15.0343H15.0251H15.0159H15.0067H14.9976H14.9884H14.9792H14.9701H14.9609H14.9517H14.9426H14.9335H14.9243H14.9152H14.9061H14.897H14.8879H14.8787H14.8697H14.8606H14.8515H14.8424H14.8333H14.8243H14.8152H14.8062H14.7971H14.7881H14.779H14.77H14.761H14.752H14.743H14.734H14.725H14.716H14.707H14.6981H14.6891H14.6801H14.6712H14.6623H14.6533H14.6444H14.6355H14.6266H14.6177H14.6088H14.5999H14.591H14.5822H14.5733H14.5644H14.5556H14.5468H14.5379H14.5291H14.5203H14.5115H14.5027H14.4939H14.4851H14.4764H14.4676H14.4588H14.4501H14.4414H14.4326H14.4239H14.4152H14.4065H14.3978H14.3891H14.3805H14.3718H14.3632H14.3545H14.3459H14.3373H14.3286H14.32H14.3114H14.3028H14.2943H14.2857H14.2771H14.2686H14.2601H14.2515H14.243H14.2345H14.226H14.2175H14.209H14.2006H14.1921H14.1837H14.1752H14.1668H14.1584H14.15H14.1416H14.1332H14.1249H14.1165H14.1081H14.0998H14.0915H14.0832H14.0749H14.0666H14.0583H14.05H14.0417H14.0335H14.0253H14.017H14.0088H14.0006H13.9924H13.9842H13.9761H13.9679H13.9598H13.9516H13.9435H13.9354H13.9273H13.9192H13.9112H13.9031H13.895H13.887H13.879H13.871H13.863H13.855H13.847H13.8391H13.8311H13.8232H13.8153H13.8073H13.7995H13.7916H13.7837H13.7758H13.768H13.7602H13.7524H13.7445H13.7368H13.729H13.7212H13.7135H13.7057H13.698H13.6903H13.6826H13.6749H13.6673H13.6596H13.652H13.6443H13.6367H13.6291H13.6215H13.614H13.6064H13.5989H13.5913H13.5838H13.5763H13.5689H13.5614H13.5539H13.5465H13.5391H13.5317H13.5243H13.5169H13.5095H13.5022H13.4948H13.4875H13.4802H13.4729H13.4656H13.4584H13.4511H13.4439H13.4367H13.4295H13.4223H13.4152H13.408H13.4009H13.3938H13.3867H13.3796H13.3725H13.3654H13.3584H13.3514H13.3444H13.3374H13.3304H13.3235H13.3165H13.3096H13.3027H13.2958H13.2889H13.2821H13.2752H13.2684H13.2616H13.2548H13.248H13.2413H13.2345H13.2278H13.2211H13.2144H13.2078H13.2011H13.1945H13.1879H13.1812H13.1747H13.1681H13.1616H13.155H13.1485H13.142H13.1355H13.1291H13.1226H13.1162H13.1098H13.1034H13.0971H13.0907H13.0844H13.0781H13.0718H13.0655H13.0592H13.053H13.0468H13.0406H13.0344H13.0282H13.0221H13.016H13.0098H13.0038H12.9977H12.9916H12.9856H12.9796H12.9736H12.9676H12.9617H12.9557H12.9498H12.9439H12.938H12.9322H12.9264H12.9205H12.9147H12.909H12.9032H12.8975H12.8917H12.886H12.8804H12.8747H12.8691H12.8635H12.8579H12.8523H12.8467H12.8412H12.8357H12.8302H12.8247H12.8193H12.8138H12.8084H12.803H12.7977H12.7923H12.787H12.7817H12.7764H12.7711H12.7659H12.7607H12.7555H12.7503H12.7451H12.74H12.7349H12.7298H12.7247H12.7197H12.7146H12.7096H12.7046H12.6997H12.6947H12.6898H12.6849H12.6801H12.6752H12.6704H12.6656H12.6608H12.656H12.6513H12.6466H12.6419H12.6372H12.6326H12.6279H12.6233H12.6187H12.6142H12.6097H12.6051H12.6007H12.5962H12.5918H12.5873H12.5829H12.5786H12.5742H12.5699H12.5656H12.5613H12.5571H12.5528H12.5486H12.5444H12.5403H12.5361H12.532H12.5279H12.5239H12.5198H12.5158H12.5118H12.5079H12.5039H12.5C12.2239 17 12 17.2239 12 17.5C12 17.7761 12.2239 18 12.5 18H12.5039H12.5079H12.5118H12.5158H12.5198H12.5239H12.5279H12.532H12.5361H12.5403H12.5444H12.5486H12.5528H12.5571H12.5613H12.5656H12.5699H12.5742H12.5786H12.5829H12.5873H12.5918H12.5962H12.6007H12.6051H12.6097H12.6142H12.6187H12.6233H12.6279H12.6326H12.6372H12.6419H12.6466H12.6513H12.656H12.6608H12.6656H12.6704H12.6752H12.6801H12.6849H12.6898H12.6947H12.6997H12.7046H12.7096H12.7146H12.7197H12.7247H12.7298H12.7349H12.74H12.7451H12.7503H12.7555H12.7607H12.7659H12.7711H12.7764H12.7817H12.787H12.7923H12.7977H12.803H12.8084H12.8138H12.8193H12.8247H12.8302H12.8357H12.8412H12.8467H12.8523H12.8579H12.8635H12.8691H12.8747H12.8804H12.886H12.8917H12.8975H12.9032H12.909H12.9147H12.9205H12.9264H12.9322H12.938H12.9439H12.9498H12.9557H12.9617H12.9676H12.9736H12.9796H12.9856H12.9916H12.9977H13.0038H13.0098H13.016H13.0221H13.0282H13.0344H13.0406H13.0468H13.053H13.0592H13.0655H13.0718H13.0781H13.0844H13.0907H13.0971H13.1034H13.1098H13.1162H13.1226H13.1291H13.1355H13.142H13.1485H13.155H13.1616H13.1681H13.1747H13.1812H13.1879H13.1945H13.2011H13.2078H13.2144H13.2211H13.2278H13.2345H13.2413H13.248H13.2548H13.2616H13.2684H13.2752H13.2821H13.2889H13.2958H13.3027H13.3096H13.3165H13.3235H13.3304H13.3374H13.3444H13.3514H13.3584H13.3654H13.3725H13.3796H13.3867H13.3938H13.4009H13.408H13.4152H13.4223H13.4295H13.4367H13.4439H13.4511H13.4584H13.4656H13.4729H13.4802H13.4875H13.4948H13.5022H13.5095H13.5169H13.5243H13.5317H13.5391H13.5465H13.5539H13.5614H13.5689H13.5763H13.5838H13.5913H13.5989H13.6064H13.614H13.6215H13.6291H13.6367H13.6443H13.652H13.6596H13.6673H13.6749H13.6826H13.6903H13.698H13.7057H13.7135H13.7212H13.729H13.7368H13.7445H13.7524H13.7602H13.768H13.7758H13.7837H13.7916H13.7995H13.8073H13.8153H13.8232H13.8311H13.8391H13.847H13.855H13.863H13.871H13.879H13.887H13.895H13.9031H13.9112H13.9192H13.9273H13.9354H13.9435H13.9516H13.9598H13.9679H13.9761H13.9842H13.9924H14.0006H14.0088H14.017H14.0253H14.0335H14.0417H14.05H14.0583H14.0666H14.0749H14.0832H14.0915H14.0998H14.1081H14.1165H14.1249H14.1332H14.1416H14.15H14.1584H14.1668H14.1752H14.1837H14.1921H14.2006H14.209H14.2175H14.226H14.2345H14.243H14.2515H14.2601H14.2686H14.2771H14.2857H14.2943H14.3028H14.3114H14.32H14.3286H14.3373H14.3459H14.3545H14.3632H14.3718H14.3805H14.3891H14.3978H14.4065H14.4152H14.4239H14.4326H14.4414H14.4501H14.4588H14.4676H14.4764H14.4851H14.4939H14.5027H14.5115H14.5203H14.5291H14.5379H14.5468H14.5556H14.5644H14.5733H14.5822H14.591H14.5999H14.6088H14.6177H14.6266H14.6355H14.6444H14.6533H14.6623H14.6712H14.6801H14.6891H14.6981H14.707H14.716H14.725H14.734H14.743H14.752H14.761H14.77H14.779H14.7881H14.7971H14.8062H14.8152H14.8243H14.8333H14.8424H14.8515H14.8606H14.8697H14.8787H14.8879H14.897H14.9061H14.9152H14.9243H14.9335H14.9426H14.9517H14.9609H14.9701H14.9792H14.9884H14.9976H15.0067H15.0159H15.0251H15.0343H15.0435H15.0527H15.0619H15.0711H15.0804H15.0896H15.0988H15.1081H15.1173H15.1265H15.1358H15.1451H15.1543H15.1636H15.1729H15.1821H15.1914H15.2007H15.21H15.2193H15.2286H15.2379H15.2472H15.2565H15.2658H15.2751H15.2844H15.2937H15.3031H15.3124H15.3217H15.3311H15.3404H15.3498H15.3591H15.3685H15.3778H15.3872H15.3966H15.4059H15.4153H15.4247H15.434H15.4434H15.4528H15.4622H15.4716H15.481H15.4904H15.4998H15.5092H15.5186H15.528H15.5374H15.5468H15.5562H15.5656H15.575H15.5844H15.5938H15.6033H15.6127H15.6221H15.6315H15.641H15.6504H15.6598H15.6693H15.6787H15.6882H15.6976H15.707H15.7165H15.7259H15.7354H15.7448H15.7543H15.7637H15.7732H15.7826H15.7921H15.8015H15.811H15.8204H15.8299H15.8393H15.8488H15.8583H15.8677H15.8772H15.8866H15.8961H15.9056H15.915H15.9245H15.9339H15.9434H15.9529H15.9623H15.9718H15.9812H15.9907H16.0002H16.0096H16.0191H16.0286H16.038H16.0475H16.0569H16.0664H16.0758H16.0853H16.0948H16.1042H16.1137H16.1231H16.1326H16.142H16.1515H16.1609H16.1704H16.1798H16.1893H16.1987H16.2082H16.2176H16.2271H16.2365H16.2459H16.2554H16.2648H16.2742H16.2837H16.2931H16.3025H16.312H16.3214H16.3308H16.3402H16.3496H16.3591H16.3685H16.3779H16.3873H16.3967H16.4061H16.4155H16.4249H16.4343H16.4437H16.4531H16.4625H16.4719H16.4812H16.4906H16.5C17.478 18 18.1287 17.5502 18.515 16.9753C18.8833 16.4272 19 15.7877 19 15.3571V15.3404V15.3235V15.3066V15.2896V15.2725V15.2554V15.2381V15.2208V15.2035V15.186V15.1685V15.1509V15.1333V15.1156V15.0978V15.0799V15.062V15.044V15.0259V15.0077V14.9895V14.9713V14.9529V14.9345V14.916V14.8975V14.8789V14.8602V14.8414V14.8226V14.8037V14.7848V14.7658V14.7467V14.7276V14.7084V14.6892V14.6698V14.6505V14.631V14.6115V14.5919V14.5723V14.5526V14.5329V14.5131V14.4932V14.4733V14.4533V14.4333V14.4132V14.393V14.3728V14.3525V14.3322V14.3118V14.2914V14.2709V14.2503V14.2297V14.2091V14.1884V14.1676V14.1468V14.1259V14.105V14.084V14.063V14.0419V14.0207V13.9995V13.9783V13.957V13.9357V13.9143V13.8929V13.8714V13.8498V13.8283V13.8066V13.785V13.7632V13.7415V13.7196V13.6978V13.6759V13.6539V13.6319V13.6099V13.5878V13.5656V13.5435V13.5212V13.499V13.4767V13.4543V13.4319V13.4095V13.387V13.3645V13.3419V13.3193V13.2967V13.274V13.2513V13.2285V13.2058V13.1829V13.16V13.1371V13.1142V13.0912V13.0682V13.0451V13.022V12.9989V12.9758V12.9526V12.9293V12.9061V12.8828V12.8594V12.8361V12.8127V12.7892V12.7658V12.7423V12.7188V12.6952V12.6716V12.648V12.6243V12.6007V12.577V12.5532V12.5294V12.5057V12.4818V12.458V12.4341V12.4102V12.3863V12.3623V12.3383V12.3143V12.2903V12.2662V12.2422V12.218V12.1939V12.1698V12.1456V12.1214V12.0972V12.0729V12.0487V12.0244V12.0001V11.9757V11.9514V11.927V11.9026V11.8782V11.8538V11.8293V11.8049V11.7804V11.7559V11.7314V11.7068V11.6823V11.6577V11.6331V11.6085V11.5839V11.5593V11.5347V11.51V11.4853V11.4606V11.4359V11.4112V11.3865V11.3618V11.337V11.3123V11.2875V11.2627V11.2379V11.2131V11.1883V11.1635V11.1387V11.1138V11.089V11.0641V11.0393V11.0144V10.9895V10.9647V10.9398V10.9149V10.89V10.8651V10.8402V10.8152V10.7903V10.7654V10.7405V10.7156V10.6906V10.6657V10.6408V10.6158V10.5909V10.5659V10.541V10.5161V10.4911V10.4662V10.4412V10.4163V10.3914V10.3664V10.3415V10.3166V10.2916V10.2667V10.2418V10.2169V10.1919V10.167V10.1421V10.1172V10.0923V10.0674V10.0426V10.0177V9.99282V9.96796V9.9431V9.91826V9.89342V9.86859V9.84377V9.81896V9.79415V9.76936V9.74458V9.71981V9.69505V9.6703V9.64557V9.62084V9.59613V9.57143V9.54674V9.52207V9.49741V9.47276V9.44813V9.42352V9.39892V9.37433V9.34976V9.32521V9.30067V9.27615V9.25165V9.22716V9.2027V9.17825V9.15382V9.12941V9.10501V9.08064V9.05629V9.03196V9.00765V8.98336V8.95909V8.93484V8.91061V8.88641V8.86223V8.83807V8.81394V8.78983V8.76574V8.74168V8.71765V8.69363V8.66965V8.64569V8.62175V8.59785V8.57397V8.55011V8.52629V8.50249V8.47872V8.45498V8.43127V8.40758V8.38393V8.36031V8.33671V8.31315V8.28962V8.26612V8.24265V8.21922V8.19581V8.17244V8.14911V8.1258V8.10253V8.07929V8.05609V8.03292V8.00979V7.9867V7.96363V7.94061V7.91762V7.89467V7.87176V7.84888V7.82604V7.80324V7.78048V7.75776V7.73507V7.71243V7.68983V7.66726V7.64474V7.62226V7.59982V7.57742V7.55506V7.53275V7.51048V7.48825V7.46606V7.44392V7.42182V7.39977V7.37776V7.3558V7.33388V7.31201V7.29019V7.26841V7.24668V7.22499V7.20335V7.18177V7.16022V7.13873V7.11729V7.09589V7.07455V7.05326V7.03201V7.01082V6.98968V6.96858V6.94754V6.92656V6.90562V6.88474V6.86391V6.84314V6.82241V6.80175V6.78113V6.76057V6.74007V6.71962V6.69923V6.67889V6.65862V6.63839V6.61823V6.59812V6.57807V6.55808V6.53815V6.51827V6.49846V6.4787V6.45901V6.43937V6.4198V6.40028V6.38083V6.36144V6.34212V6.32285V6.30365V6.28451V6.26543V6.24642V6.22747V6.20859V6.18977V6.17101V6.15232V6.1337V6.11515V6.09665V6.07823V6.05988V6.04159V6.02337V6.00522V5.98713V5.96912V5.95117V5.9333V5.91549V5.89776V5.88009V5.8625V5.84497V5.82752V5.81015V5.79284V5.77561V5.75845V5.74136V5.72435V5.70741V5.69054V5.67375V5.65704V5.6404V5.62384V5.60735V5.59094V5.5746V5.55835V5.54217V5.52607V5.51005V5.4941V5.47824V5.46245V5.44674V5.43112V5.41557V5.40011V5.38472V5.36942V5.3542V5.33906V5.324V5.30903V5.29414V5.27933V5.26461V5.24997V5.23541V5.22094V5.20656V5.19226V5.17804V5.16392V5.14987V5.13592V5.12205V5.10827V5.09458V5.08098V5.06747V5.05404V5.0407V5.02746V5.0143V5.00123V4.98826V4.97537V4.96258V4.94988V4.93727V4.92475V4.91233V4.89999V4.88776V4.87561V4.86356V4.85161V4.83975V4.82798V4.81631V4.80474V4.79326V4.78188V4.77059V4.7594V4.74831V4.73732V4.72643V4.71563V4.70494V4.69434V4.68384V4.67345V4.66315V4.65295V4.64286C19 3.63682 18.5995 2.95244 18.0554 2.53268C17.5345 2.13084 16.9207 2 16.5 2H12.5ZM6.64645 4.64645C6.84171 4.45118 7.15829 4.45118 7.35355 4.64645L12.3536 9.64645L12.7071 10L12.3536 10.3536L7.35355 15.3536C7.15829 15.5488 6.84171 15.5488 6.64645 15.3536C6.45118 15.1583 6.45118 14.8417 6.64645 14.6464L10.7929 10.5H1C0.723858 10.5 0.5 10.2761 0.5 10C0.5 9.72386 0.723858 9.5 1 9.5H10.7929L6.64645 5.35355C6.45118 5.15829 6.45118 4.84171 6.64645 4.64645Z" fill="white"/>
</svg>
