<svg width="19" height="20" viewBox="0 0 19 20" fill="none" xmlns="http://www.w3.org/2000/svg">
<path fill-rule="evenodd" clip-rule="evenodd" d="M15.5 8.21905C17.4732 7.973 19 6.28981 19 4.25C19 2.04086 17.2091 0.25 15 0.25C12.7909 0.25 11 2.04086 11 4.25C11 6.28981 12.5268 7.973 14.5 8.21905V13.25C14.5 14.383 14.9002 15.1961 15.4681 15.75H12H6H2.53063C2.63099 15.6441 2.72258 15.5327 2.80577 15.4172C3.33011 14.6889 3.5 13.83 3.5 13.25V7.25C3.5 5.01296 4.4209 3.66307 5.54215 2.85577C6.6889 2.03011 8.08001 1.75 9 1.75C9.27614 1.75 9.5 1.52614 9.5 1.25C9.5 0.973858 9.27614 0.75 9 0.75C7.91999 0.75 6.3111 1.06989 4.95785 2.04423C3.5791 3.03693 2.5 4.68704 2.5 7.25V13.25C2.5 13.67 2.36989 14.3111 1.99423 14.8328C1.63693 15.3291 1.03704 15.75 0 15.75V16.75H5.53744C5.61186 17.2664 5.80578 17.8776 6.19423 18.4172C6.73693 19.1709 7.63704 19.75 9 19.75C10.363 19.75 11.2631 19.1709 11.8058 18.4172C12.1942 17.8776 12.3881 17.2664 12.4626 16.75H18V15.75C17.58 15.75 16.9389 15.6199 16.4172 15.2442C15.9209 14.8869 15.5 14.287 15.5 13.25V8.21905ZM7.00577 17.8328C6.75979 17.4912 6.61909 17.0984 6.55126 16.75H11.4487C11.3809 17.0984 11.2402 17.4912 10.9942 17.8328C10.6369 18.3291 10.037 18.75 9 18.75C7.96296 18.75 7.36307 18.3291 7.00577 17.8328Z" fill="white"/>
</svg>
