<svg width="20" height="20" viewBox="0 0 20 20" fill="none" xmlns="http://www.w3.org/2000/svg">
<path d="M16.2437 18.3636V18.9886C16.2437 18.3636 16.2436 18.3636 16.2435 18.3636H16.2432H16.2426H16.2418H16.2408H16.2395H16.238H16.2363H16.2344H16.2322H16.2298H16.2272H16.2244H16.2213H16.2181H16.2146H16.2108H16.2069H16.2028H16.1984H16.1938H16.189H16.184H16.1788H16.1734H16.1677H16.1619H16.1558H16.1495H16.1431H16.1364H16.1295H16.1224H16.115H16.1075H16.0998H16.0919H16.0838H16.0755H16.0669H16.0582H16.0493H16.0402H16.0308H16.0213H16.0116H16.0017H15.9916H15.9813H15.9708H15.9602H15.9493H15.9383H15.927H15.9156H15.904H15.8921H15.8801H15.868H15.8556H15.8431H15.8303H15.8174H15.8043H15.791H15.7776H15.764H15.7502H15.7362H15.722H15.7077H15.6931H15.6785H15.6636H15.6486H15.6334H15.618H15.6024H15.5867H15.5708H15.5548H15.5386H15.5222H15.5056H15.4889H15.472H15.455H15.4378H15.4204H15.4029H15.3852H15.3674H15.3494H15.3312H15.3129H15.2944H15.2758H15.257H15.2381H15.219H15.1997H15.1803H15.1608H15.1411H15.1213H15.1013H15.0812H15.0609H15.0405H15.0199H14.9992H14.9783H14.9573H14.9362H14.9149H14.8935H14.8719H14.8502H14.8284H14.8064H14.7843H14.7621H14.7397H14.7172H14.6946H14.6718H14.6489H14.6259H14.6027H14.5794H14.556H14.5325H14.5088H14.485H14.4611H14.437H14.4129H14.3886H14.3642H14.3396H14.315H14.2902H14.2653H14.2403H14.2152H14.1899H14.1646H14.1391H14.1135H14.0878H14.062H14.0361H14.0101H13.984H13.9577H13.9314H13.9049H13.8783H13.8517H13.8249H13.798H13.771H13.744H13.7168H13.6895H13.6621H13.6346H13.607H13.5793H13.5516H13.5237H13.4957H13.4677H13.4395H13.4113H13.3829H13.3545H13.326H13.2974H13.2687H13.2399H13.211H13.182H13.153H13.1239H13.0946H13.0653H13.036H13.0065H12.977H12.9473H12.9176H12.8879H12.858H12.8281H12.7981H12.768H12.7378H12.7076H12.6773H12.6469H12.6165H12.5859H12.5554H12.5247H12.494H12.4632H12.4323H12.4014H12.3704H12.3394H12.3083H12.2771H12.2459H12.2146H12.1832H12.1518H12.1203H12.0888H12.0572H12.0255H11.9938H11.9621H11.9303H11.8984H11.8665H11.8345H11.8025H11.7705H11.7383H11.7062H11.674H11.6417H11.6094H11.5771H11.5447H11.5123H11.4798H11.4473H11.4147H11.3821H11.3495H11.3168H11.2841H11.2514H11.2186H11.1858H11.1529H11.12H11.0871H11.0542H11.0212H10.9882H10.9551H10.9221H10.889H10.8558H10.8227H10.7895H10.7563H10.7231H10.6898H10.6566H10.6233H10.59H10.5566H10.5233H10.4899H10.4565H10.4231H10.3897H10.3562H10.3228H10.2893H10.2559H10.2224H10.1889H10.1554H10.1218H10.0883H10.0548H10.0212H9.98768H9.95413H9.92057H9.887H9.85344H9.81987H9.78629H9.75272H9.71915H9.68558H9.65201H9.61844H9.58488H9.55132H9.51776H9.48421H9.45067H9.41713H9.38361H9.35009H9.31658H9.28308H9.24959H9.21611H9.18265H9.1492H9.11577H9.08235H9.04894H9.01556H8.98219H8.94883H8.9155H8.88219H8.8489H8.81563H8.78238H8.74916H8.71596H8.68278H8.64963H8.61651H8.58341H8.55034H8.51731H8.48429H8.45132H8.41837H8.38545H8.35257H8.31972H8.2869H8.25412H8.22138H8.18867H8.156H8.12337H8.09077H8.05822H8.02571H7.99324H7.96081H7.92842H7.89608H7.86379H7.83154H7.79933H7.76717H7.73506H7.703H7.67099H7.63903H7.60712H7.57526H7.54346H7.51171H7.48001H7.44837H7.41678H7.38525H7.35378H7.32237H7.29101H7.25972H7.22848H7.19731H7.1662H7.13515H7.10417H7.07325H7.0424H7.01161H6.98089H6.95024H6.91966H6.88914H6.8587H6.82833H6.79803H6.7678H6.73765H6.70757H6.67756H6.64763H6.61778H6.58801H6.55831H6.52869H6.49916H6.4697H6.44032H6.41103H6.38182H6.3527H6.32365H6.2947H6.26583H6.23705H6.20835H6.17975H6.15123H6.1228H6.09447H6.06622H6.03807H6.01002H5.98205H5.95418H5.92641H5.89874H5.87116H5.84368H5.8163H5.78902H5.76184H5.73476H5.70778H5.68091H5.65414H5.62747H5.60091H5.57446H5.54811H5.52187H5.49574H5.46972H5.44381H5.41801H5.39233H5.36675H5.34129H5.31594H5.29071H5.26559H5.24059H5.21571H5.19095H5.1663H5.14178H5.11737H5.09309H5.06893H5.04489H5.02097H4.99718H4.97352H4.94998H4.92657H4.90329H4.88013H4.85711H4.83421H4.81145H4.78881H4.76631H4.74395H4.72171H4.69962H4.67765H4.65583H4.63414H4.61259H4.59118H4.56991H4.54878H4.52779H4.50694H4.48624H4.46568H4.44526H4.42499H4.40487H4.38489H4.36506H4.34538H4.32585H4.30647H4.28724H4.26816H4.24924H4.23046H4.21184H4.19338H4.17507H4.15692H4.13893H4.12109H4.10341H4.0859H4.06854H4.05134H4.03431H4.01744H4.00073H3.98419H3.96782H3.9516H3.93556H3.91968H3.90398H3.88844H3.87307H3.85787H3.84285H3.828H3.81332H3.79881H3.78448H3.77032H3.75635C3.44702 18.3636 3.2574 18.2769 3.13033 18.1768C2.99421 18.0695 2.8889 17.9137 2.81082 17.724C2.73276 17.5344 2.69235 17.3357 2.67255 17.1782C2.66286 17.101 2.65861 17.0379 2.65677 16.996C2.65585 16.9752 2.65555 16.96 2.65545 16.9513L2.65542 16.9461L2.65546 16.9461V16.9352V8.72199V8.09699H2.03046H1.62808C1.86314 7.88182 2.12675 7.63878 2.41387 7.37135C3.61602 6.2517 5.23279 4.7025 6.89476 2.98109C7.80057 2.19282 8.60836 1.82611 9.29341 1.69073C9.98231 1.55459 10.5859 1.64467 11.0913 1.82673C11.6016 2.01056 12.0132 2.28916 12.2994 2.52596C12.4415 2.64352 12.5497 2.74827 12.6205 2.82142C12.6558 2.85792 12.6815 2.88628 12.6973 2.90411C12.7052 2.91302 12.7106 2.91927 12.7133 2.92257L12.7153 2.92483L12.7153 2.92486L12.7156 2.92524L12.7431 2.9589L12.7772 2.98993L18.3854 8.09699H18.2741H17.6491V8.72199V16.9352C17.6491 17.4304 17.5425 17.7298 17.4279 17.9118C17.3149 18.0912 17.1676 18.199 17.01 18.2674C16.8459 18.3387 16.6716 18.3661 16.5301 18.3731C16.4611 18.3765 16.405 18.3748 16.3686 18.3726C16.3506 18.3715 16.3379 18.3703 16.3314 18.3696C16.3299 18.3695 16.3287 18.3694 16.3279 18.3693L16.2881 18.3636H16.2437Z" stroke="#2D81F1" stroke-width="1.25" stroke-linecap="round"/>
<path d="M10 17.8889V11.1111" stroke="#2D81F1" stroke-width="1.25" stroke-linecap="round"/>
</svg>
