<svg width="20" height="20" viewBox="0 0 20 20" fill="none" xmlns="http://www.w3.org/2000/svg">
<g clip-path="url(#clip0_1_5213)">
<mask id="path-1-inside-1_1_5213" fill="white">
<path fill-rule="evenodd" clip-rule="evenodd" d="M6 4C6 4 6 0 10.1722 0C14 0 14 4 14 4"/>
</mask>
<path d="M4.75 4C4.75 4.69036 5.30964 5.25 6 5.25C6.69036 5.25 7.25 4.69036 7.25 4H4.75ZM12.75 4C12.75 4.69036 13.3096 5.25 14 5.25C14.6904 5.25 15.25 4.69036 15.25 4H12.75ZM6 4C7.25 4 7.25 4.00062 7.25 4.00123C7.25 4.00141 7.25 4.00201 7.25 4.00237C7.25 4.00311 7.24999 4.00378 7.24999 4.0044C7.24999 4.00564 7.24998 4.00666 7.24997 4.00745C7.24996 4.00903 7.24995 4.00972 7.24995 4.00955C7.24996 4.00921 7.25002 4.00545 7.25026 3.99851C7.25075 3.98459 7.25193 3.95814 7.25469 3.921C7.26026 3.84628 7.27206 3.73096 7.29672 3.58909C7.34703 3.29969 7.44538 2.93174 7.62986 2.57803C7.81122 2.23027 8.06647 1.91273 8.43334 1.67825C8.79491 1.44716 9.3374 1.25 10.1722 1.25V-1.25C8.92098 -1.25 7.89887 -0.947156 7.08699 -0.428249C6.28042 0.0872661 5.75337 0.769727 5.41321 1.42197C5.07615 2.06826 4.91373 2.70031 4.83366 3.16091C4.79313 3.39404 4.77233 3.59123 4.7616 3.73525C4.75622 3.80748 4.75333 3.86697 4.75177 3.91164C4.751 3.934 4.75055 3.9527 4.7503 3.9675C4.75018 3.9749 4.7501 3.98133 4.75006 3.98675C4.75004 3.98947 4.75002 3.99193 4.75001 3.99414C4.75001 3.99524 4.75 3.99628 4.75 3.99726C4.75 3.99775 4.75 3.99844 4.75 3.99868C4.75 3.99935 4.75 4 6 4ZM10.1722 1.25C10.8989 1.25 11.3618 1.43546 11.6706 1.65064C11.9901 1.87321 12.2235 2.18333 12.394 2.53951C12.5661 2.89931 12.6584 3.27502 12.7058 3.57187C12.729 3.71724 12.7401 3.8358 12.7454 3.91337C12.7481 3.95194 12.7492 3.97974 12.7497 3.99493C12.7499 4.00251 12.75 4.00688 12.75 4.00782C12.75 4.00828 12.75 4.00789 12.75 4.00659C12.75 4.00595 12.75 4.00508 12.75 4.00398C12.75 4.00343 12.75 4.00283 12.75 4.00216C12.75 4.00183 12.75 4.00129 12.75 4.00112C12.75 4.00057 12.75 4 14 4C15.25 4 15.25 3.9994 15.25 3.99878C15.25 3.99856 15.25 3.99792 15.25 3.99747C15.25 3.99657 15.25 3.9956 15.25 3.99456C15.25 3.9925 15.25 3.99018 15.2499 3.98761C15.2499 3.98247 15.2498 3.97634 15.2497 3.96923C15.2495 3.95504 15.2491 3.93695 15.2484 3.91523C15.247 3.87182 15.2445 3.81368 15.2396 3.74288C15.23 3.6017 15.2112 3.40776 15.1746 3.17813C15.1023 2.72498 14.9554 2.10069 14.6491 1.46049C14.3411 0.816666 13.8568 0.126793 13.0997 -0.400643C12.332 -0.93546 11.3595 -1.25 10.1722 -1.25V1.25Z" fill="#2D81F1" mask="url(#path-1-inside-1_1_5213)"/>
<path d="M4.76271 4.625H15.2373C17.0854 4.625 18.375 6.08047 18.375 8V16C18.375 17.9195 17.0854 19.375 15.2373 19.375H4.76271C3.18777 19.375 1.625 17.8855 1.625 16V8C1.625 6.11455 3.18777 4.625 4.76271 4.625Z" stroke="#2D81F1" stroke-width="1.25" stroke-linecap="round"/>
<path d="M6 8C6 8 6 11 10.1722 11C13.5 11 14 8 14 8" stroke="#2D81F1" stroke-width="1.25" stroke-linecap="round"/>
</g>
<defs>
<clipPath id="clip0_1_5213">
<rect width="18" height="20" fill="white" transform="translate(1)"/>
</clipPath>
</defs>
</svg>
