<svg width="22" height="22" viewBox="0 0 22 22" fill="none" xmlns="http://www.w3.org/2000/svg">
<path fill-rule="evenodd" clip-rule="evenodd" d="M5.53862 3.37073C4.52068 4.69166 4.17822 6.28809 4.17822 7.34101V7.34676V7.35255V7.35839V7.36427V7.3702V7.37617V7.38218V7.38824V7.39435V7.4005V7.40669V7.41293V7.41921V7.42554V7.43191V7.43832V7.44478V7.45128V7.45783V7.46442V7.47105V7.47773V7.48445V7.49122V7.49803V7.50488V7.51177V7.51871V7.5257V7.53272V7.53979V7.54691V7.55406V7.56126V7.56851V7.5758V7.58312V7.5905V7.59791V7.60537V7.61287V7.62042V7.62801V7.63564V7.64331V7.65103V7.65879V7.66659V7.67443V7.68232V7.69025V7.69822V7.70624V7.71429V7.72239V7.73053V7.73872V7.74694V7.75521V7.76352V7.77188V7.78027V7.78871V7.79719V7.80571V7.81427V7.82287V7.83152V7.84021V7.84894V7.85771V7.86652V7.87538V7.88427V7.89321V7.90219V7.91121V7.92027V7.92937V7.93852V7.9477V7.95693V7.9662V7.97551V7.98486V7.99425V8.00368V8.01315V8.02267V8.03222V8.04182V8.05146V8.06113V8.07085V8.08061V8.09041V8.10025V8.11013V8.12005V8.13001V8.14001V8.15005V8.16014V8.17026V8.18042V8.19062V8.20086V8.21115V8.22147V8.23183V8.24224V8.25268V8.26316V8.27368V8.28424V8.29485V8.30549V8.31617V8.32689V8.33765V8.34845V8.35929V8.37016V8.38108V8.39204V8.40304V8.41407V8.42515V8.43626V8.44741V8.4586V8.46984V8.48111V8.49241V8.50376V8.51515V8.52658V8.53804V8.54954V8.56108V8.57266V8.58428V8.59594V8.60764V8.61937V8.63114V8.64295V8.6548V8.66669V8.67862V8.69058V8.70258V8.71462V8.7267V8.73882V8.75097V8.76316V8.77539V8.78766V8.79997V8.81231V8.82469V8.83711V8.84957V8.86206V8.87459V8.88716V8.89977V8.91241V8.92509V8.93781V8.95057V8.96336V8.97619V8.98906V9.00196V9.0149V9.02788V9.04089V9.05395V9.06704V9.08016V9.09332V9.10652V9.11976V9.13303V9.14634V9.15969V9.17307V9.18649V9.19995V9.21344V9.22696V9.24053V9.25413V9.26777V9.28144V9.29515V9.3089V9.32268V9.33649V9.35035V9.36424V9.37816V9.39212V9.40612V9.42015V9.43422V9.44832V9.46246V9.47664V9.49085V9.50509V9.51938V9.53369V9.54804V9.56243V9.57685V9.59131V9.60581V9.62033V9.6349V9.64949V9.66413V9.6788V9.6935V9.70824V9.72301V9.73782V9.75266V9.76754V9.78245V9.79739V9.81238V9.82739V9.84244V9.85752V9.87264V9.8878V9.90298V9.9182V9.93346V9.94875V9.96407V9.97943V9.99482V10.0103V10.0257V10.0412V10.0567V10.0723V10.0879V10.1035V10.1192V10.1349V10.1506V10.1664V10.1822V10.198V10.2139V10.2298V10.2457V10.2617V10.2776V10.2937V10.3097V10.3258V10.342V10.3581V10.3743V10.3906V10.4068V10.4231V10.4394V10.4558V10.4722V10.4886V10.5051V10.5216V10.5381V10.5546V10.5712V10.5879V10.6045V10.6212V10.6379V10.6547V10.6714V10.6883V10.7051V10.722V10.7389V10.7558V10.7728V10.7898V10.8069V10.8239V10.841V10.8582V10.8753V10.8925V10.9097V10.927V10.9443V10.9616V10.979V10.9964V11.0138V11.0312V11.0487V11.0662V11.0838V11.1013V11.1189V11.1366V11.1542V11.1719V11.1897V11.2074V11.2252V11.243V11.2609V11.2788V11.2967V11.3146V11.3326V11.3506V11.3686V11.3867V11.4048V11.4229V11.4411V11.4592V11.4775V11.4957V11.514V11.5323V11.5506V11.569V11.5874V11.6058V11.6243V11.6428V11.6613V11.6798V11.6984V11.717V11.7356V11.7543V11.773V11.7917V11.8105V11.8292V11.848V11.8669V11.8858V11.9047V11.9236V11.9425V11.9615V11.9805V11.9996V12.0187V12.0378V12.0569V12.076V12.0952V12.1144V12.1337V12.153V12.1723V12.1916V12.211V12.2303V12.2498V12.2692V12.2887V12.3082V12.3277V12.3473V12.3668V12.3865V12.4061V12.4258V12.4455V12.4652V12.4849V12.5047V12.5245V12.5444V12.5642V12.5841V12.604V12.624V12.644V12.664V12.684V12.7041V12.7241V12.7443V12.7644V12.7846V12.8048V12.825V12.8452V12.8655V12.8858V12.9061V12.9265V12.9469V12.9673V12.9877V13.0082V13.0287V13.0492V13.0697V13.0903V13.1109V13.1315V13.1522V13.1728V13.1935V13.2143V13.235V13.2558V13.2766V13.2974V13.3183V13.3392V13.3601V13.381V13.402V13.423V13.444V13.465V13.4861V13.5072V13.5283V13.5494V13.5706V13.5918V13.613V13.6343V13.6555V13.6768V13.6981V13.7195V13.7409V13.7623V13.7837V13.8051V13.8266V13.8481V13.8696V13.8912V13.9127V13.9343V13.9559V13.9776V13.9993V14.021V14.0427V14.0644V14.0862V14.108V14.1298V14.1516V14.1735V14.1954V14.2173V14.2392V14.2612V14.2832V14.3052V14.3272V14.3493V14.3714V14.3935V14.4156V14.4378V14.46V14.4822V14.5044V14.5266V14.5489V14.5712V14.5935V14.6159V14.6382V14.6606V14.683V14.7055V14.7279V14.7504V14.7729V14.7954V14.818V14.8406V14.8632V14.8858V14.9084V14.9311V14.9538V14.9765V14.9992V15.022V15.0448V15.0676V15.0904V15.1133V15.1361V15.159C4.17822 16.9358 4.9574 18.0066 5.91849 18.6532C6.79601 19.2435 7.84369 19.489 8.62627 19.5365C8.85015 18.7037 9.61044 18.0907 10.5139 18.0907H11.4861C12.5655 18.0907 13.4406 18.9658 13.4406 20.0452C13.4406 21.1246 12.5655 21.9997 11.4861 21.9997H10.5139C9.60459 21.9997 8.84032 21.3787 8.62199 20.5377C7.69256 20.4899 6.43659 20.2069 5.36033 19.4829C4.45081 18.8711 3.68286 17.9509 3.35221 16.6362H2.70198C1.75781 16.6362 1.11957 16.2312 0.734089 15.6952C0.366966 15.1848 0.249504 14.5874 0.249504 14.1817V14.1798V14.1779V14.1759V14.174V14.172V14.17V14.168V14.1659V14.1639V14.1618V14.1597V14.1576V14.1555V14.1534V14.1513V14.1491V14.1469V14.1447V14.1425V14.1403V14.138V14.1358V14.1335V14.1312V14.1289V14.1266V14.1242V14.1219V14.1195V14.1171V14.1147V14.1123V14.1099V14.1074V14.1049V14.1025V14.1V14.0974V14.0949V14.0924V14.0898V14.0872V14.0846V14.082V14.0794V14.0767V14.0741V14.0714V14.0687V14.066V14.0632V14.0605V14.0577V14.055V14.0522V14.0494V14.0466V14.0437V14.0409V14.038V14.0351V14.0322V14.0293V14.0264V14.0234V14.0205V14.0175V14.0145V14.0115V14.0084V14.0054V14.0023V13.9993V13.9962V13.9931V13.9899V13.9868V13.9836V13.9805V13.9773V13.9741V13.9709V13.9676V13.9644V13.9611V13.9579V13.9546V13.9512V13.9479V13.9446V13.9412V13.9378V13.9345V13.9311V13.9276V13.9242V13.9207V13.9173V13.9138V13.9103V13.9068V13.9033V13.8997V13.8962V13.8926V13.889V13.8854V13.8818V13.8781V13.8745V13.8708V13.8671V13.8634V13.8597V13.856V13.8522V13.8485V13.8447V13.8409V13.8371V13.8333V13.8294V13.8256V13.8217V13.8178V13.8139V13.81V13.8061V13.8022V13.7982V13.7942V13.7902V13.7862V13.7822V13.7782V13.7741V13.7701V13.766V13.7619V13.7578V13.7536V13.7495V13.7453V13.7412V13.737V13.7328V13.7286V13.7243V13.7201V13.7158V13.7115V13.7072V13.7029V13.6986V13.6943V13.6899V13.6855V13.6812V13.6768V13.6723V13.6679V13.6635V13.659V13.6545V13.6501V13.6455V13.641V13.6365V13.6319V13.6274V13.6228V13.6182V13.6136V13.609V13.6043V13.5997V13.595V13.5903V13.5856V13.5809V13.5762V13.5715V13.5667V13.5619V13.5571V13.5523V13.5475V13.5427V13.5379V13.533V13.5281V13.5232V13.5183V13.5134V13.5085V13.5035V13.4986V13.4936V13.4886V13.4836V13.4786V13.4735V13.4685V13.4634V13.4583V13.4532V13.4481V13.443V13.4379V13.4327V13.4275V13.4224V13.4172V13.4119V13.4067V13.4015V13.3962V13.391V13.3857V13.3804V13.3751V13.3697V13.3644V13.359V13.3537V13.3483V13.3429V13.3375V13.332V13.3266V13.3211V13.3157V13.3102V13.3047V13.2992V13.2936V13.2881V13.2825V13.277V13.2714V13.2658V13.2602V13.2545V13.2489V13.2432V13.2376V13.2319V13.2262V13.2205V13.2147V13.209V13.2032V13.1974V13.1917V13.1859V13.18V13.1742V13.1684V13.1625V13.1566V13.1508V13.1449V13.139V13.133V13.1271V13.1211V13.1152V13.1092V13.1032V13.0972V13.0911V13.0851V13.079V13.073V13.0669V13.0608V13.0547V13.0486V13.0424V13.0363V13.0301V13.0239V13.0177V13.0115V13.0053V12.9991V12.9928V12.9866V12.9803V12.974V12.9677V12.9614V12.955V12.9487V12.9423V12.9359V12.9296V12.9232V12.9167V12.9103V12.9039V12.8974V12.8909V12.8845V12.878V12.8714V12.8649V12.8584V12.8518V12.8453V12.8387V12.8321V12.8255V12.8189V12.8122V12.8056V12.7989V12.7922V12.7855V12.7788V12.7721V12.7654V12.7586V12.7519V12.7451V12.7383V12.7315V12.7247V12.7179V12.7111V12.7042V12.6973V12.6905V12.6836V12.6767V12.6697V12.6628V12.6559V12.6489V12.6419V12.6349V12.6279V12.6209V12.6139V12.6069V12.5998V12.5927V12.5857V12.5786V12.5714V12.5643V12.5572V12.55V12.5429V12.5357V12.5285V12.5213V12.5141V12.5069V12.4996V12.4924V12.4851V12.4778V12.4705V12.4632V12.4559V12.4486V12.4412V12.4339V12.4265V12.4191V12.4117V12.4043V12.3969V12.3894V12.382V12.3745V12.367V12.3596V12.352V12.3445V12.337V12.3295V12.3219V12.3143V12.3067V12.2992V12.2915V12.2839V12.2763V12.2686V12.261V12.2533V12.2456V12.2379V12.2302V12.2225V12.2147V12.207V12.1992V12.1914V12.1837V12.1759V12.168V12.1602V12.1524V12.1445V12.1366V12.1288V12.1209V12.113V12.105V12.0971V12.0892V12.0812V12.0732V12.0653V12.0573V12.0493V12.0412V12.0332V12.0252V12.0171V12.009V12.0009V11.9928V11.9847V11.9766V11.9685V11.9603V11.9522V11.944V11.9358V11.9276V11.9194V11.9112V11.9029V11.8947V11.8864V11.8782V11.8699V11.8616V11.8533V11.8449V11.8366V11.8282V11.8199V11.8115V11.8031V11.7947V11.7863V11.7779V11.7695V11.761V11.7525V11.7441V11.7356V11.7271V11.7186V11.7101V11.7015V11.693V11.6844V11.6758V11.6672V11.6587V11.65V11.6414V11.6328V11.6241V11.6155V11.6068V11.5981V11.5894V11.5807V11.572V11.5633V11.5545V11.5458V11.537V11.5282V11.5194V11.5106V11.5018V11.493V11.4841V11.4753V11.4664V11.4575V11.4486V11.4397V11.4308V11.4219V11.4129V11.404V11.395V11.3861V11.3771V11.3681V11.3591V11.35V11.341V11.3319V11.3229V11.3138V11.3047V11.2956V11.2865V11.2774V11.2683V11.2591V11.25C0.249504 10.3054 0.653825 9.66671 1.18933 9.28075C1.69937 8.91314 2.29645 8.79547 2.70198 8.79547H3.17822V8.78766V8.77539V8.76316V8.75097V8.73882V8.7267V8.71462V8.70258V8.69058V8.67862V8.66669V8.6548V8.64295V8.63114V8.61937V8.60764V8.59594V8.58428V8.57266V8.56108V8.54954V8.53804V8.52658V8.51515V8.50376V8.49241V8.48111V8.46984V8.4586V8.44741V8.43626V8.42515V8.41407V8.40304V8.39204V8.38108V8.37016V8.35929V8.34845V8.33765V8.32689V8.31617V8.30549V8.29485V8.28424V8.27368V8.26316V8.25268V8.24224V8.23183V8.22147V8.21115V8.20086V8.19062V8.18042V8.17026V8.16014V8.15005V8.14001V8.13001V8.12005V8.11013V8.10025V8.09041V8.08061V8.07085V8.06113V8.05146V8.04182V8.03222V8.02267V8.01315V8.00368V7.99425V7.98486V7.97551V7.9662V7.95693V7.9477V7.93852V7.92937V7.92027V7.91121V7.90219V7.89321V7.88427V7.87538V7.86652V7.85771V7.84894V7.84021V7.83152V7.82287V7.81427V7.80571V7.79719V7.78871V7.78027V7.77188V7.76352V7.75521V7.74694V7.73872V7.73053V7.72239V7.71429V7.70624V7.69822V7.69025V7.68232V7.67443V7.66659V7.65879V7.65103V7.64331V7.63564V7.62801V7.62042V7.61287V7.60537V7.59791V7.5905V7.58312V7.5758V7.56851V7.56126V7.55406V7.54691V7.53979V7.53272V7.5257V7.51871V7.51177V7.50488V7.49803V7.49122V7.48445V7.47773V7.47105V7.46442V7.45783V7.45128V7.44478V7.43832V7.43191V7.42554V7.41921V7.41293V7.40669V7.4005V7.39435V7.38824V7.38218V7.37617V7.3702V7.36427V7.35839V7.35255V7.34676V7.34101C3.17822 6.11367 3.56794 4.28971 4.74653 2.76033C5.94305 1.20767 7.92219 0.000244141 11 0.000244141C14.0778 0.000244141 16.057 1.20767 17.2535 2.76033C18.4321 4.28971 18.8218 6.11367 18.8218 7.34101V8.79547H19.298C19.7036 8.79547 20.3006 8.91314 20.8107 9.28075C21.3462 9.66671 21.7505 10.3054 21.7505 11.25V11.2591V11.2683V11.2774V11.2865V11.2956V11.3047V11.3138V11.3229V11.3319V11.341V11.35V11.3591V11.3681V11.3771V11.3861V11.395V11.404V11.4129V11.4219V11.4308V11.4397V11.4486V11.4575V11.4664V11.4753V11.4841V11.493V11.5018V11.5106V11.5194V11.5282V11.537V11.5458V11.5545V11.5633V11.572V11.5807V11.5894V11.5981V11.6068V11.6155V11.6241V11.6328V11.6414V11.65V11.6587V11.6672V11.6758V11.6844V11.693V11.7015V11.7101V11.7186V11.7271V11.7356V11.7441V11.7525V11.761V11.7695V11.7779V11.7863V11.7947V11.8031V11.8115V11.8199V11.8282V11.8366V11.8449V11.8533V11.8616V11.8699V11.8782V11.8864V11.8947V11.9029V11.9112V11.9194V11.9276V11.9358V11.944V11.9522V11.9603V11.9685V11.9766V11.9847V11.9928V12.0009V12.009V12.0171V12.0252V12.0332V12.0412V12.0493V12.0573V12.0653V12.0732V12.0812V12.0892V12.0971V12.105V12.113V12.1209V12.1288V12.1366V12.1445V12.1524V12.1602V12.168V12.1759V12.1837V12.1914V12.1992V12.207V12.2147V12.2225V12.2302V12.2379V12.2456V12.2533V12.261V12.2686V12.2763V12.2839V12.2915V12.2992V12.3067V12.3143V12.3219V12.3295V12.337V12.3445V12.352V12.3596V12.367V12.3745V12.382V12.3894V12.3969V12.4043V12.4117V12.4191V12.4265V12.4339V12.4412V12.4486V12.4559V12.4632V12.4705V12.4778V12.4851V12.4924V12.4996V12.5069V12.5141V12.5213V12.5285V12.5357V12.5429V12.55V12.5572V12.5643V12.5714V12.5786V12.5857V12.5927V12.5998V12.6069V12.6139V12.6209V12.6279V12.6349V12.6419V12.6489V12.6559V12.6628V12.6697V12.6767V12.6836V12.6905V12.6973V12.7042V12.7111V12.7179V12.7247V12.7315V12.7383V12.7451V12.7519V12.7586V12.7654V12.7721V12.7788V12.7855V12.7922V12.7989V12.8056V12.8122V12.8189V12.8255V12.8321V12.8387V12.8453V12.8518V12.8584V12.8649V12.8714V12.878V12.8845V12.8909V12.8974V12.9039V12.9103V12.9167V12.9232V12.9296V12.9359V12.9423V12.9487V12.955V12.9614V12.9677V12.974V12.9803V12.9866V12.9928V12.9991V13.0053V13.0115V13.0177V13.0239V13.0301V13.0363V13.0424V13.0486V13.0547V13.0608V13.0669V13.073V13.079V13.0851V13.0911V13.0972V13.1032V13.1092V13.1152V13.1211V13.1271V13.133V13.139V13.1449V13.1508V13.1566V13.1625V13.1684V13.1742V13.18V13.1859V13.1917V13.1974V13.2032V13.209V13.2147V13.2205V13.2262V13.2319V13.2376V13.2432V13.2489V13.2545V13.2602V13.2658V13.2714V13.277V13.2825V13.2881V13.2936V13.2992V13.3047V13.3102V13.3157V13.3211V13.3266V13.332V13.3375V13.3429V13.3483V13.3537V13.359V13.3644V13.3697V13.3751V13.3804V13.3857V13.391V13.3962V13.4015V13.4067V13.4119V13.4172V13.4224V13.4275V13.4327V13.4379V13.443V13.4481V13.4532V13.4583V13.4634V13.4685V13.4735V13.4786V13.4836V13.4886V13.4936V13.4986V13.5035V13.5085V13.5134V13.5183V13.5232V13.5281V13.533V13.5379V13.5427V13.5475V13.5523V13.5571V13.5619V13.5667V13.5715V13.5762V13.5809V13.5856V13.5903V13.595V13.5997V13.6043V13.609V13.6136V13.6182V13.6228V13.6274V13.6319V13.6365V13.641V13.6455V13.6501V13.6545V13.659V13.6635V13.6679V13.6723V13.6768V13.6812V13.6855V13.6899V13.6943V13.6986V13.7029V13.7072V13.7115V13.7158V13.7201V13.7243V13.7286V13.7328V13.737V13.7412V13.7453V13.7495V13.7536V13.7578V13.7619V13.766V13.7701V13.7741V13.7782V13.7822V13.7862V13.7902V13.7942V13.7982V13.8022V13.8061V13.81V13.8139V13.8178V13.8217V13.8256V13.8294V13.8333V13.8371V13.8409V13.8447V13.8485V13.8522V13.856V13.8597V13.8634V13.8671V13.8708V13.8745V13.8781V13.8818V13.8854V13.889V13.8926V13.8962V13.8997V13.9033V13.9068V13.9103V13.9138V13.9173V13.9207V13.9242V13.9276V13.9311V13.9345V13.9378V13.9412V13.9446V13.9479V13.9512V13.9546V13.9579V13.9611V13.9644V13.9676V13.9709V13.9741V13.9773V13.9805V13.9836V13.9868V13.9899V13.9931V13.9962V13.9993V14.0023V14.0054V14.0084V14.0115V14.0145V14.0175V14.0205V14.0234V14.0264V14.0293V14.0322V14.0351V14.038V14.0409V14.0437V14.0466V14.0494V14.0522V14.055V14.0577V14.0605V14.0632V14.066V14.0687V14.0714V14.0741V14.0767V14.0794V14.082V14.0846V14.0872V14.0898V14.0924V14.0949V14.0974V14.1V14.1025V14.1049V14.1074V14.1099V14.1123V14.1147V14.1171V14.1195V14.1219V14.1242V14.1266V14.1289V14.1312V14.1335V14.1358V14.138V14.1403V14.1425V14.1447V14.1469V14.1491V14.1513V14.1534V14.1555V14.1576V14.1597V14.1618V14.1639V14.1659V14.168V14.17V14.172V14.174V14.1759V14.1779V14.1798V14.1817C21.7505 14.5874 21.633 15.1848 21.2659 15.6952C20.8804 16.2312 20.2422 16.6362 19.298 16.6362H18.3218H17.8218V16.1362V9.29547V8.79547L17.8218 7.34101C17.8218 6.28809 17.4793 4.69166 16.4614 3.37073C15.4614 2.07307 13.7796 1.00024 11 1.00024C8.2204 1.00024 6.53864 2.07307 5.53862 3.37073ZM18.8218 15.1618V15.6362H19.298C19.9158 15.6362 20.2538 15.3898 20.4541 15.1113C20.6727 14.8074 20.7505 14.4276 20.7505 14.1817V14.1798V14.1779V14.1759V14.174V14.172V14.17V14.168V14.1659V14.1639V14.1618V14.1597V14.1576V14.1555V14.1534V14.1513V14.1491V14.1469V14.1447V14.1425V14.1403V14.138V14.1358V14.1335V14.1312V14.1289V14.1266V14.1242V14.1219V14.1195V14.1171V14.1147V14.1123V14.1099V14.1074V14.1049V14.1025V14.1V14.0974V14.0949V14.0924V14.0898V14.0872V14.0846V14.082V14.0794V14.0767V14.0741V14.0714V14.0687V14.066V14.0632V14.0605V14.0577V14.055V14.0522V14.0494V14.0466V14.0437V14.0409V14.038V14.0351V14.0322V14.0293V14.0264V14.0234V14.0205V14.0175V14.0145V14.0115V14.0084V14.0054V14.0023V13.9993V13.9962V13.9931V13.9899V13.9868V13.9836V13.9805V13.9773V13.9741V13.9709V13.9676V13.9644V13.9611V13.9579V13.9546V13.9512V13.9479V13.9446V13.9412V13.9378V13.9345V13.9311V13.9276V13.9242V13.9207V13.9173V13.9138V13.9103V13.9068V13.9033V13.8997V13.8962V13.8926V13.889V13.8854V13.8818V13.8781V13.8745V13.8708V13.8671V13.8634V13.8597V13.856V13.8522V13.8485V13.8447V13.8409V13.8371V13.8333V13.8294V13.8256V13.8217V13.8178V13.8139V13.81V13.8061V13.8022V13.7982V13.7942V13.7902V13.7862V13.7822V13.7782V13.7741V13.7701V13.766V13.7619V13.7578V13.7536V13.7495V13.7453V13.7412V13.737V13.7328V13.7286V13.7243V13.7201V13.7158V13.7115V13.7072V13.7029V13.6986V13.6943V13.6899V13.6855V13.6812V13.6768V13.6723V13.6679V13.6635V13.659V13.6545V13.6501V13.6455V13.641V13.6365V13.6319V13.6274V13.6228V13.6182V13.6136V13.609V13.6043V13.5997V13.595V13.5903V13.5856V13.5809V13.5762V13.5715V13.5667V13.5619V13.5571V13.5523V13.5475V13.5427V13.5379V13.533V13.5281V13.5232V13.5183V13.5134V13.5085V13.5035V13.4986V13.4936V13.4886V13.4836V13.4786V13.4735V13.4685V13.4634V13.4583V13.4532V13.4481V13.443V13.4379V13.4327V13.4275V13.4224V13.4172V13.4119V13.4067V13.4015V13.3962V13.391V13.3857V13.3804V13.3751V13.3697V13.3644V13.359V13.3537V13.3483V13.3429V13.3375V13.332V13.3266V13.3211V13.3157V13.3102V13.3047V13.2992V13.2936V13.2881V13.2825V13.277V13.2714V13.2658V13.2602V13.2545V13.2489V13.2432V13.2376V13.2319V13.2262V13.2205V13.2147V13.209V13.2032V13.1974V13.1917V13.1859V13.18V13.1742V13.1684V13.1625V13.1566V13.1508V13.1449V13.139V13.133V13.1271V13.1211V13.1152V13.1092V13.1032V13.0972V13.0911V13.0851V13.079V13.073V13.0669V13.0608V13.0547V13.0486V13.0424V13.0363V13.0301V13.0239V13.0177V13.0115V13.0053V12.9991V12.9928V12.9866V12.9803V12.974V12.9677V12.9614V12.955V12.9487V12.9423V12.9359V12.9296V12.9232V12.9167V12.9103V12.9039V12.8974V12.8909V12.8845V12.878V12.8714V12.8649V12.8584V12.8518V12.8453V12.8387V12.8321V12.8255V12.8189V12.8122V12.8056V12.7989V12.7922V12.7855V12.7788V12.7721V12.7654V12.7586V12.7519V12.7451V12.7383V12.7315V12.7247V12.7179V12.7111V12.7042V12.6973V12.6905V12.6836V12.6767V12.6697V12.6628V12.6559V12.6489V12.6419V12.6349V12.6279V12.6209V12.6139V12.6069V12.5998V12.5927V12.5857V12.5786V12.5714V12.5643V12.5572V12.55V12.5429V12.5357V12.5285V12.5213V12.5141V12.5069V12.4996V12.4924V12.4851V12.4778V12.4705V12.4632V12.4559V12.4486V12.4412V12.4339V12.4265V12.4191V12.4117V12.4043V12.3969V12.3894V12.382V12.3745V12.367V12.3596V12.352V12.3445V12.337V12.3295V12.3219V12.3143V12.3067V12.2992V12.2915V12.2839V12.2763V12.2686V12.261V12.2533V12.2456V12.2379V12.2302V12.2225V12.2147V12.207V12.1992V12.1914V12.1837V12.1759V12.168V12.1602V12.1524V12.1445V12.1366V12.1288V12.1209V12.113V12.105V12.0971V12.0892V12.0812V12.0732V12.0653V12.0573V12.0493V12.0412V12.0332V12.0252V12.0171V12.009V12.0009V11.9928V11.9847V11.9766V11.9685V11.9603V11.9522V11.944V11.9358V11.9276V11.9194V11.9112V11.9029V11.8947V11.8864V11.8782V11.8699V11.8616V11.8533V11.8449V11.8366V11.8282V11.8199V11.8115V11.8031V11.7947V11.7863V11.7779V11.7695V11.761V11.7525V11.7441V11.7356V11.7271V11.7186V11.7101V11.7015V11.693V11.6844V11.6758V11.6672V11.6587V11.65V11.6414V11.6328V11.6241V11.6155V11.6068V11.5981V11.5894V11.5807V11.572V11.5633V11.5545V11.5458V11.537V11.5282V11.5194V11.5106V11.5018V11.493V11.4841V11.4753V11.4664V11.4575V11.4486V11.4397V11.4308V11.4219V11.4129V11.404V11.395V11.3861V11.3771V11.3681V11.3591V11.35V11.341V11.3319V11.3229V11.3138V11.3047V11.2956V11.2865V11.2774V11.2683V11.2591V11.25C20.7505 10.6309 20.504 10.2924 20.226 10.092C19.9225 9.87325 19.5433 9.79547 19.298 9.79547H18.8218L18.8218 15.159L18.8218 15.1618ZM3.17822 15.159C3.17822 15.3225 3.18389 15.4816 3.19491 15.6362H2.70198C2.08417 15.6362 1.74617 15.3898 1.54591 15.1113C1.32729 14.8074 1.2495 14.4276 1.2495 14.1817V14.1798V14.1779V14.1759V14.174V14.172V14.17V14.168V14.1659V14.1639V14.1618V14.1597V14.1576V14.1555V14.1534V14.1513V14.1491V14.1469V14.1447V14.1425V14.1403V14.138V14.1358V14.1335V14.1312V14.1289V14.1266V14.1242V14.1219V14.1195V14.1171V14.1147V14.1123V14.1099V14.1074V14.1049V14.1025V14.1V14.0974V14.0949V14.0924V14.0898V14.0872V14.0846V14.082V14.0794V14.0767V14.0741V14.0714V14.0687V14.066V14.0632V14.0605V14.0577V14.055V14.0522V14.0494V14.0466V14.0437V14.0409V14.038V14.0351V14.0322V14.0293V14.0264V14.0234V14.0205V14.0175V14.0145V14.0115V14.0084V14.0054V14.0023V13.9993V13.9962V13.9931V13.9899V13.9868V13.9836V13.9805V13.9773V13.9741V13.9709V13.9676V13.9644V13.9611V13.9579V13.9546V13.9512V13.9479V13.9446V13.9412V13.9378V13.9345V13.9311V13.9276V13.9242V13.9207V13.9173V13.9138V13.9103V13.9068V13.9033V13.8997V13.8962V13.8926V13.889V13.8854V13.8818V13.8781V13.8745V13.8708V13.8671V13.8634V13.8597V13.856V13.8522V13.8485V13.8447V13.8409V13.8371V13.8333V13.8294V13.8256V13.8217V13.8178V13.8139V13.81V13.8061V13.8022V13.7982V13.7942V13.7902V13.7862V13.7822V13.7782V13.7741V13.7701V13.766V13.7619V13.7578V13.7536V13.7495V13.7453V13.7412V13.737V13.7328V13.7286V13.7243V13.7201V13.7158V13.7115V13.7072V13.7029V13.6986V13.6943V13.6899V13.6855V13.6812V13.6768V13.6723V13.6679V13.6635V13.659V13.6545V13.6501V13.6455V13.641V13.6365V13.6319V13.6274V13.6228V13.6182V13.6136V13.609V13.6043V13.5997V13.595V13.5903V13.5856V13.5809V13.5762V13.5715V13.5667V13.5619V13.5571V13.5523V13.5475V13.5427V13.5379V13.533V13.5281V13.5232V13.5183V13.5134V13.5085V13.5035V13.4986V13.4936V13.4886V13.4836V13.4786V13.4735V13.4685V13.4634V13.4583V13.4532V13.4481V13.443V13.4379V13.4327V13.4275V13.4224V13.4172V13.4119V13.4067V13.4015V13.3962V13.391V13.3857V13.3804V13.3751V13.3697V13.3644V13.359V13.3537V13.3483V13.3429V13.3375V13.332V13.3266V13.3211V13.3157V13.3102V13.3047V13.2992V13.2936V13.2881V13.2825V13.277V13.2714V13.2658V13.2602V13.2545V13.2489V13.2432V13.2376V13.2319V13.2262V13.2205V13.2147V13.209V13.2032V13.1974V13.1917V13.1859V13.18V13.1742V13.1684V13.1625V13.1566V13.1508V13.1449V13.139V13.133V13.1271V13.1211V13.1152V13.1092V13.1032V13.0972V13.0911V13.0851V13.079V13.073V13.0669V13.0608V13.0547V13.0486V13.0424V13.0363V13.0301V13.0239V13.0177V13.0115V13.0053V12.9991V12.9928V12.9866V12.9803V12.974V12.9677V12.9614V12.955V12.9487V12.9423V12.9359V12.9296V12.9232V12.9167V12.9103V12.9039V12.8974V12.8909V12.8845V12.878V12.8714V12.8649V12.8584V12.8518V12.8453V12.8387V12.8321V12.8255V12.8189V12.8122V12.8056V12.7989V12.7922V12.7855V12.7788V12.7721V12.7654V12.7586V12.7519V12.7451V12.7383V12.7315V12.7247V12.7179V12.7111V12.7042V12.6973V12.6905V12.6836V12.6767V12.6697V12.6628V12.6559V12.6489V12.6419V12.6349V12.6279V12.6209V12.6139V12.6069V12.5998V12.5927V12.5857V12.5786V12.5714V12.5643V12.5572V12.55V12.5429V12.5357V12.5285V12.5213V12.5141V12.5069V12.4996V12.4924V12.4851V12.4778V12.4705V12.4632V12.4559V12.4486V12.4412V12.4339V12.4265V12.4191V12.4117V12.4043V12.3969V12.3894V12.382V12.3745V12.367V12.3596V12.352V12.3445V12.337V12.3295V12.3219V12.3143V12.3067V12.2992V12.2915V12.2839V12.2763V12.2686V12.261V12.2533V12.2456V12.2379V12.2302V12.2225V12.2147V12.207V12.1992V12.1914V12.1837V12.1759V12.168V12.1602V12.1524V12.1445V12.1366V12.1288V12.1209V12.113V12.105V12.0971V12.0892V12.0812V12.0732V12.0653V12.0573V12.0493V12.0412V12.0332V12.0252V12.0171V12.009V12.0009V11.9928V11.9847V11.9766V11.9685V11.9603V11.9522V11.944V11.9358V11.9276V11.9194V11.9112V11.9029V11.8947V11.8864V11.8782V11.8699V11.8616V11.8533V11.8449V11.8366V11.8282V11.8199V11.8115V11.8031V11.7947V11.7863V11.7779V11.7695V11.761V11.7525V11.7441V11.7356V11.7271V11.7186V11.7101V11.7015V11.693V11.6844V11.6758V11.6672V11.6587V11.65V11.6414V11.6328V11.6241V11.6155V11.6068V11.5981V11.5894V11.5807V11.572V11.5633V11.5545V11.5458V11.537V11.5282V11.5194V11.5106V11.5018V11.493V11.4841V11.4753V11.4664V11.4575V11.4486V11.4397V11.4308V11.4219V11.4129V11.404V11.395V11.3861V11.3771V11.3681V11.3591V11.35V11.341V11.3319V11.3229V11.3138V11.3047V11.2956V11.2865V11.2774V11.2683V11.2591V11.25C1.2495 10.6309 1.49601 10.2924 1.77403 10.092C2.07753 9.87325 2.45668 9.79547 2.70198 9.79547H3.17822V9.79739V9.81238V9.82739V9.84244V9.85752V9.87264V9.8878V9.90298V9.9182V9.93346V9.94875V9.96407V9.97943V9.99482V10.0103V10.0257V10.0412V10.0567V10.0723V10.0879V10.1035V10.1192V10.1349V10.1506V10.1664V10.1822V10.198V10.2139V10.2298V10.2457V10.2617V10.2776V10.2937V10.3097V10.3258V10.342V10.3581V10.3743V10.3906V10.4068V10.4231V10.4394V10.4558V10.4722V10.4886V10.5051V10.5216V10.5381V10.5546V10.5712V10.5879V10.6045V10.6212V10.6379V10.6547V10.6714V10.6883V10.7051V10.722V10.7389V10.7558V10.7728V10.7898V10.8069V10.8239V10.841V10.8582V10.8753V10.8925V10.9097V10.927V10.9443V10.9616V10.979V10.9964V11.0138V11.0312V11.0487V11.0662V11.0838V11.1013V11.1189V11.1366V11.1542V11.1719V11.1897V11.2074V11.2252V11.243V11.2609V11.2788V11.2967V11.3146V11.3326V11.3506V11.3686V11.3867V11.4048V11.4229V11.4411V11.4592V11.4775V11.4957V11.514V11.5323V11.5506V11.569V11.5874V11.6058V11.6243V11.6428V11.6613V11.6798V11.6984V11.717V11.7356V11.7543V11.773V11.7917V11.8105V11.8292V11.848V11.8669V11.8858V11.9047V11.9236V11.9425V11.9615V11.9805V11.9996V12.0187V12.0378V12.0569V12.076V12.0952V12.1144V12.1337V12.153V12.1723V12.1916V12.211V12.2303V12.2498V12.2692V12.2887V12.3082V12.3277V12.3473V12.3668V12.3865V12.4061V12.4258V12.4455V12.4652V12.4849V12.5047V12.5245V12.5444V12.5642V12.5841V12.604V12.624V12.644V12.664V12.684V12.7041V12.7241V12.7443V12.7644V12.7846V12.8048V12.825V12.8452V12.8655V12.8858V12.9061V12.9265V12.9469V12.9673V12.9877V13.0082V13.0287V13.0492V13.0697V13.0903V13.1109V13.1315V13.1522V13.1728V13.1935V13.2143V13.235V13.2558V13.2766V13.2974V13.3183V13.3392V13.3601V13.381V13.402V13.423V13.444V13.465V13.4861V13.5072V13.5283V13.5494V13.5706V13.5918V13.613V13.6343V13.6555V13.6768V13.6981V13.7195V13.7409V13.7623V13.7837V13.8051V13.8266V13.8481V13.8696V13.8912V13.9127V13.9343V13.9559V13.9776V13.9993V14.021V14.0427V14.0644V14.0862V14.108V14.1298V14.1516V14.1735V14.1954V14.2173V14.2392V14.2612V14.2832V14.3052V14.3272V14.3493V14.3714V14.3935V14.4156V14.4378V14.46V14.4822V14.5044V14.5266V14.5489V14.5712V14.5935V14.6159V14.6382V14.6606V14.683V14.7055V14.7279V14.7504V14.7729V14.7954V14.818V14.8406V14.8632V14.8858V14.9084V14.9311V14.9538V14.9765V14.9992V15.022V15.0448V15.0676V15.0904V15.1133V15.1361V15.159ZM7.2298 12.8509C7.42516 12.6557 7.74174 12.6559 7.9369 12.8512C8.44984 13.3647 9.38381 13.9857 10.4825 14.1648C11.55 14.3387 12.8116 14.1041 14.0631 12.8512C14.2583 12.6559 14.5748 12.6557 14.7702 12.8509C14.9656 13.046 14.9657 13.3626 14.7706 13.558C13.2886 15.0414 11.7028 15.3768 10.3216 15.1517C8.97157 14.9317 7.85544 14.1846 7.22943 13.558C7.03427 13.3626 7.03443 13.046 7.2298 12.8509ZM10.5139 19.0907H11.4861C12.0132 19.0907 12.4406 19.518 12.4406 20.0452C12.4406 20.5724 12.0132 20.9997 11.4861 20.9997H10.5139C9.98675 20.9997 9.5594 20.5724 9.5594 20.0452C9.5594 19.518 9.98675 19.0907 10.5139 19.0907Z" fill="white"/>
</svg>
