<svg width="32" height="25" viewBox="0 0 32 25" fill="none" xmlns="http://www.w3.org/2000/svg">
<g clip-path="url(#clip0_48_1547)">
<path fill-rule="evenodd" clip-rule="evenodd" d="M1.9375 19.8846C1.9375 19.8846 1.9375 23.5769 5.96875 23.5769H26.5938C26.5938 23.5769 30.0625 23.5769 30.0625 19.8846V8.80771C30.0625 8.80771 30.0625 5.39233 26.5938 5.39233H22.5625L19.0938 1.4231H13.4688L9.4375 5.39233H5.96875C5.96875 5.39233 1.9375 5.39233 1.9375 8.80771V19.8846Z" stroke="#6F717D" stroke-width="1.25"/>
<path d="M16.0004 9.09937C18.9811 9.09958 21.3996 11.5217 21.3998 14.5125C21.3998 17.5034 18.9812 19.9263 16.0004 19.9265C13.0194 19.9265 10.6 17.5035 10.6 14.5125C10.6002 11.5215 13.0195 9.09937 16.0004 9.09937Z" stroke="#6F717D" stroke-width="1.25"/>
<path d="M7.4642 8.97437C8.01889 8.97437 8.47104 9.42548 8.47104 9.98413C8.47096 10.5427 8.01884 10.9939 7.4642 10.9939C6.90975 10.9937 6.45842 10.5426 6.45834 9.98413C6.45834 9.42561 6.9097 8.97458 7.4642 8.97437Z" stroke="#6F717D"/>
</g>
<defs>
<clipPath id="clip0_48_1547">
<rect width="30.125" height="24.1538" fill="white" transform="translate(0.9375 0.423096)"/>
</clipPath>
</defs>
</svg>
