<svg width="26" height="26" viewBox="0 0 26 26" fill="none" xmlns="http://www.w3.org/2000/svg">
<g clip-path="url(#clip0_1_5596)">
<path d="M22.74 13C22.74 12.55 22.7 12.11 22.64 11.67L25.01 9.49L22.09 4.5L18.99 5.43C18.28 4.89 17.5 4.43 16.66 4.1L15.93 1H10.09L9.36 4.1C8.52 4.44 7.73 4.89 7.03 5.43L3.93 4.5L1 9.49L3.37 11.67C3.31 12.1 3.27 12.55 3.27 13C3.27 13.45 3.31 13.89 3.37 14.33L1 16.51L3.92 21.5L7.02 20.57C7.73 21.11 8.51 21.57 9.35 21.9L10.08 25H15.92L16.65 21.9C17.49 21.56 18.28 21.11 18.98 20.57L22.08 21.5L25 16.51L22.63 14.33C22.69 13.9 22.73 13.45 22.73 13H22.74Z" stroke="white" stroke-width="1.25" stroke-linejoin="round"/>
<path d="M12.9999 16.6C14.9881 16.6 16.5999 14.9882 16.5999 13C16.5999 11.0118 14.9881 9.40002 12.9999 9.40002C11.0117 9.40002 9.3999 11.0118 9.3999 13C9.3999 14.9882 11.0117 16.6 12.9999 16.6Z" stroke="white" stroke-width="1.25" stroke-linejoin="round"/>
</g>
<defs>
<clipPath id="clip0_1_5596">
<rect width="25" height="25" fill="white" transform="translate(0.5 0.5)"/>
</clipPath>
</defs>
</svg>
