<svg width="19" height="20" viewBox="0 0 19 20" fill="none" xmlns="http://www.w3.org/2000/svg">
<g clip-path="url(#clip0_1_5454)">
<path fill-rule="evenodd" clip-rule="evenodd" d="M4.36056 0.357165L4.00577 -0.00012207L3.65098 0.357165L0.852067 3.17577L0.706858 3.322V3.52808V10.1048V10.6048H1.70686V10.1048V3.73416L4.00577 1.41908L5.51691 2.94086L5.87171 3.29814L6.2265 2.94086L7.73764 1.41908L9.24879 2.94086L9.60358 3.29814L9.95837 2.94086L11.4695 1.41908L12.9807 2.94086L13.3355 3.29814L13.6903 2.94086L15.2014 1.41908L17.5003 3.73416V19.0002H9.60358H9.10358V20.0002H9.60358H18.0003H18.5003V19.5002V3.52808V3.322L18.3551 3.17577L15.5562 0.357165L15.2014 -0.00012207L14.8466 0.357165L13.3355 1.87895L11.8243 0.357165L11.4695 -0.00012207L11.1147 0.357165L9.60358 1.87895L8.09243 0.357165L7.73764 -0.00012207L7.38285 0.357165L5.87171 1.87895L4.36056 0.357165ZM4.93873 6.78622H4.43873V7.78622H4.93873H14.2684H14.7684V6.78622H14.2684H4.93873ZM4.43873 9.60482H4.93873H14.2684H14.7684V10.6048H14.2684H4.93873H4.43873V9.60482ZM9.60358 12.4234H9.10358V13.4234H9.60358H14.2684H14.7684V12.4234H14.2684H9.60358ZM4.00577 13.2137L4.36062 13.5712L7.15953 16.3907L7.51178 16.7456L6.80208 17.4501L6.44983 17.0952L4.50576 15.1368V19.3932V19.8932H3.50576V19.3932V15.1368L1.56171 17.0952L1.20946 17.4501L0.499756 16.7456L0.852009 16.3907L3.65092 13.5712L4.00577 13.2137Z" fill="white"/>
</g>
<defs>
<clipPath id="clip0_1_5454">
<rect width="19" height="20" fill="white"/>
</clipPath>
</defs>
</svg>
