<svg width="24" height="24" viewBox="0 0 24 24" fill="none" xmlns="http://www.w3.org/2000/svg">
<g clip-path="url(#clip0_1_5535)">
<path d="M6.56964 21.9142V11.6692H22.9108V19.9542C22.9108 20.4763 22.7681 20.828 22.5839 21.0758C22.3942 21.3311 22.1311 21.5148 21.8392 21.6458C21.5465 21.777 21.2454 21.8458 21.0116 21.8807C20.8963 21.898 20.8014 21.9064 20.7375 21.9105C20.7057 21.9125 20.6818 21.9135 20.6673 21.9139L20.6529 21.9142C20.6524 21.9142 20.6521 21.9142 20.6518 21.9142H6.56964Z" stroke="white" stroke-width="1.255" stroke-linecap="round"/>
<path d="M3.83105 5.01903L5.96718 2.41691L8.3632 5.04375L8.82681 5.55202L9.29042 5.04375L11.733 2.36584L14.4415 5.06532L14.9061 5.52834L15.3481 5.04375L17.1416 3.07747V19.9542H17.7691C17.1416 19.9542 17.1416 19.9546 17.1416 19.9549L17.1416 19.9557L17.1416 19.9574L17.1417 19.9616L17.1418 19.9729C17.142 19.9817 17.1423 19.993 17.1428 20.0066C17.1438 20.0338 17.1457 20.0704 17.1492 20.1152C17.1563 20.2045 17.1702 20.3275 17.1973 20.4731C17.2509 20.7618 17.3592 21.1545 17.5816 21.5535C17.6487 21.6739 17.7264 21.7952 17.8162 21.9142H3.34783C3.34758 21.9142 3.34725 21.9142 3.34684 21.9142L3.3324 21.9139C3.31791 21.9134 3.29407 21.9125 3.26222 21.9104C3.19831 21.9063 3.10341 21.8979 2.9881 21.8807C2.7543 21.8457 2.4532 21.777 2.16052 21.6457C1.8686 21.5148 1.60551 21.3311 1.41578 21.0758C1.23157 20.8279 1.08893 20.4763 1.08893 19.9542V3.07747L2.88243 5.04375L3.37102 5.57941L3.83105 5.01903Z" fill="#58A1FF" stroke="white" stroke-width="1.255" stroke-linecap="round"/>
<path d="M4.93359 10.0514H13.3839" stroke="white" stroke-width="1.255" stroke-linecap="round"/>
<path d="M4.93359 12.9264H13.3839" stroke="white" stroke-width="1.255" stroke-linecap="round"/>
<path d="M4.93359 15.8014H13.3839" stroke="white" stroke-width="1.255" stroke-linecap="round"/>
</g>
<defs>
<clipPath id="clip0_1_5535">
<rect width="23.0769" height="21.0833" fill="white" transform="translate(0.461426 1.45837)"/>
</clipPath>
</defs>
</svg>
