<svg width="26" height="26" viewBox="0 0 26 26" fill="none" xmlns="http://www.w3.org/2000/svg">
<g clip-path="url(#clip0_1_5600)">
<path d="M22.2169 11.21C22.0664 11.3485 21.9931 11.5518 22.0207 11.7544C22.0733 12.1399 22.1085 12.5156 22.1142 12.8927C22.1081 12.9275 22.105 12.9634 22.105 13C22.105 13.4139 22.0681 13.8342 22.011 14.2436C21.9826 14.4469 22.0559 14.6511 22.2069 14.79L24.2062 16.629L21.7888 20.7601L19.1596 19.9714C18.9667 19.9135 18.7577 19.9521 18.5982 20.0751C17.9448 20.5792 17.2047 21.0012 16.4155 21.3207C16.2275 21.3968 16.0881 21.5593 16.0416 21.7567L15.4251 24.375H10.5749L9.95836 21.7567C9.91135 21.5571 9.76941 21.3933 9.57853 21.3183C8.79965 21.0123 8.06945 20.5829 7.39836 20.0725C7.23925 19.9515 7.03187 19.9139 6.84041 19.9714L4.21119 20.7601L1.7938 16.629L3.79312 14.79C3.94364 14.6515 4.0169 14.4482 3.98927 14.2456C3.93172 13.8235 3.895 13.4132 3.895 13C3.895 12.586 3.93187 12.1658 3.989 11.7564C4.01736 11.5531 3.94415 11.3489 3.79312 11.21L1.79436 9.37149L4.22047 5.23966L6.85041 6.02864C7.04331 6.08651 7.25229 6.04788 7.41175 5.92486C8.06516 5.4208 8.80532 4.99877 9.59449 4.67934C9.78249 4.60325 9.92187 4.44067 9.96836 4.24326L10.5849 1.625H15.4351L16.0516 4.24326C16.0986 4.44288 16.2406 4.60673 16.4315 4.68172C17.2104 4.98771 17.9405 5.41705 18.6116 5.92747C18.7707 6.04847 18.9781 6.08608 19.1696 6.02864L21.7988 5.23988L24.2162 9.37097L22.2169 11.21Z" stroke="#283042" stroke-width="1.25" stroke-linejoin="round"/>
<path d="M15.9749 13C15.9749 14.6431 14.6429 15.975 12.9999 15.975C11.3569 15.975 10.0249 14.6431 10.0249 13C10.0249 11.357 11.3569 10.025 12.9999 10.025C14.6429 10.025 15.9749 11.357 15.9749 13Z" stroke="#283042" stroke-width="1.25" stroke-linejoin="round"/>
</g>
<defs>
<clipPath id="clip0_1_5600">
<rect width="25" height="25" fill="white" transform="translate(0.5 0.5)"/>
</clipPath>
</defs>
</svg>
