<svg width="24" height="24" viewBox="0 0 24 24" fill="none" xmlns="http://www.w3.org/2000/svg">
<path fill-rule="evenodd" clip-rule="evenodd" d="M10.4851 6.01283V4.2436C10.4851 4.2436 10.4851 2.47437 12.0151 2.47437H21.0151C21.0151 2.47437 23.0851 2.47437 23.0851 4.2436C23.0851 6.01283 23.0851 11.9397 23.0851 11.9397C23.0851 11.9397 23.0851 13.9744 21.0151 13.9744H18.5851" fill="white"/>
<path d="M10.4851 6.01283V4.2436C10.4851 4.2436 10.4851 2.47437 12.0151 2.47437H21.0151C21.0151 2.47437 23.0851 2.47437 23.0851 4.2436C23.0851 6.01283 23.0851 11.9397 23.0851 11.9397C23.0851 11.9397 23.0851 13.9744 21.0151 13.9744H18.5851" stroke="#283042" stroke-width="1.25" stroke-linecap="round"/>
<path fill-rule="evenodd" clip-rule="evenodd" d="M14.9851 1.17944V3.83329V1.17944Z" fill="white"/>
<path d="M14.9851 1.17944V3.83329" stroke="#283042" stroke-width="1.25" stroke-linecap="round"/>
<path fill-rule="evenodd" clip-rule="evenodd" d="M19.7852 1.17944V3.83329V1.17944Z" fill="white"/>
<path d="M19.7852 1.17944V3.83329" stroke="#283042" stroke-width="1.25" stroke-linecap="round"/>
<path fill-rule="evenodd" clip-rule="evenodd" d="M0.915039 18.3975C0.915039 18.3975 1.17064 20.7859 3.88504 20.7859H18.285C18.285 20.7859 20.985 20.7859 20.985 18.3975V17.8077C20.985 17.8077 20.985 14.8885 18.285 14.8885L13.215 10.1705H3.88504C3.88504 10.1705 0.915039 10.1705 0.915039 13.0898C0.915039 15.7436 0.915039 18.3975 0.915039 18.3975Z" fill="white" stroke="#283042" stroke-width="1.25" stroke-linecap="round"/>
<path fill-rule="evenodd" clip-rule="evenodd" d="M6.13501 18.3975C7.37761 18.3975 8.11501 19.3876 8.11501 20.609C8.11501 21.8304 7.37761 22.8205 6.13501 22.8205C4.89241 22.8205 3.88501 21.8304 3.88501 20.609C3.88501 19.3876 4.89241 18.3975 6.13501 18.3975Z" fill="white" stroke="#283042" stroke-width="1.25" stroke-linecap="round"/>
<path fill-rule="evenodd" clip-rule="evenodd" d="M16.0352 18.3975C17.2778 18.3975 18.2852 19.3876 18.2852 20.609C18.2852 21.8304 17.2778 22.8205 16.0352 22.8205C14.7926 22.8205 13.7852 21.8304 13.7852 20.609C13.7852 19.3876 14.7926 18.3975 16.0352 18.3975Z" fill="white" stroke="#283042" stroke-width="1.25" stroke-linecap="round"/>
</svg>
