<svg width="26" height="26" viewBox="0 0 26 26" fill="none" xmlns="http://www.w3.org/2000/svg">
<path fill-rule="evenodd" clip-rule="evenodd" d="M17.4621 1.46155C21.4171 1.46155 24.3925 4.47501 24.3925 8.19232C24.3925 11.9096 21.4171 14.9231 17.4621 14.9231C14.0766 14.9231 11.1013 11.9096 11.1013 8.19232C11.1013 4.47501 14.0766 1.46155 17.4621 1.46155Z" stroke="white" stroke-width="1.25" stroke-linecap="round"/>
<path opacity="0.502" d="M17.4622 8.19226H20.2786" stroke="white" stroke-width="1.25" stroke-linecap="round"/>
<path d="M17.4622 8.19232V5.94873" stroke="white" stroke-width="1.25" stroke-linecap="round"/>
<path fill-rule="evenodd" clip-rule="evenodd" d="M1.60767 19.7308C1.60767 19.7308 1.59248 22.6154 4.45577 22.6154H19.6456C19.6456 22.6154 22.2089 22.6154 22.2089 19.7308V19.0897C22.2089 19.0897 22.2089 16.2051 19.6456 16.2051L14.5824 11.0769H4.45577C4.45577 11.0769 1.60767 11.0769 1.60767 13.9615C1.60767 16.5577 1.60767 19.7308 1.60767 19.7308Z" fill="#58A1FF" stroke="white" stroke-width="1.25" stroke-linecap="round"/>
<path fill-rule="evenodd" clip-rule="evenodd" d="M6.82923 19.7308C8.13999 19.7308 9.20265 20.8071 9.20265 22.1347C9.20265 23.4622 8.13999 24.5385 6.82923 24.5385C5.51847 24.5385 4.45581 23.4622 4.45581 22.1347C4.45581 20.8071 5.51847 19.7308 6.82923 19.7308Z" fill="#58A1FF" stroke="white" stroke-width="1.25" stroke-linecap="round"/>
<path fill-rule="evenodd" clip-rule="evenodd" d="M17.2722 19.7308C18.583 19.7308 19.6457 20.8071 19.6457 22.1347C19.6457 23.4622 18.583 24.5385 17.2722 24.5385C15.9615 24.5385 14.614 23.4622 14.614 22.1347C14.614 20.8071 15.9615 19.7308 17.2722 19.7308Z" fill="#58A1FF" stroke="white" stroke-width="1.25" stroke-linecap="round"/>
</svg>
