<svg width="25" height="27" viewBox="0 0 25 27" fill="none" xmlns="http://www.w3.org/2000/svg">
<g clip-path="url(#clip0_1_5528)">
<path d="M7.06964 23.4142V13.1692H23.4108V21.4542C23.4108 21.9763 23.2681 22.328 23.0839 22.5758C22.8942 22.8311 22.6311 23.0148 22.3392 23.1458C22.0465 23.277 21.7454 23.3458 21.5116 23.3807C21.3963 23.398 21.3014 23.4064 21.2375 23.4105C21.2057 23.4125 21.1818 23.4135 21.1673 23.4139L21.1529 23.4142C21.1524 23.4142 21.1521 23.4142 21.1518 23.4142H7.06964Z" fill="white" stroke="#283042" stroke-width="1.255" stroke-linecap="round"/>
<path d="M4.33105 6.51903L6.46718 3.91691L8.8632 6.54375L9.32681 7.05202L9.79042 6.54375L12.233 3.86584L14.9415 6.56532L15.4061 7.02834L15.8481 6.54375L17.6416 4.57747V21.4542H18.2691C17.6416 21.4542 17.6416 21.4546 17.6416 21.4549L17.6416 21.4557L17.6416 21.4574L17.6417 21.4616L17.6418 21.4729C17.642 21.4817 17.6423 21.493 17.6428 21.5066C17.6438 21.5338 17.6457 21.5704 17.6492 21.6152C17.6563 21.7045 17.6702 21.8275 17.6973 21.9731C17.7509 22.2618 17.8592 22.6545 18.0816 23.0535C18.1487 23.1739 18.2264 23.2952 18.3162 23.4142H3.84783C3.84758 23.4142 3.84725 23.4142 3.84684 23.4142L3.8324 23.4139C3.81791 23.4134 3.79407 23.4125 3.76222 23.4104C3.69831 23.4063 3.60341 23.3979 3.4881 23.3807C3.2543 23.3457 2.9532 23.277 2.66052 23.1457C2.3686 23.0148 2.10551 22.8311 1.91578 22.5758C1.73157 22.3279 1.58893 21.9763 1.58893 21.4542V4.57747L3.38243 6.54375L3.87102 7.07941L4.33105 6.51903Z" fill="white" stroke="#283042" stroke-width="1.255" stroke-linecap="round"/>
<path fill-rule="evenodd" clip-rule="evenodd" d="M5.43359 11.5514H13.8839H5.43359Z" fill="white"/>
<path d="M5.43359 11.5514H13.8839" stroke="#283042" stroke-width="1.255" stroke-linecap="round"/>
<path fill-rule="evenodd" clip-rule="evenodd" d="M5.43359 14.4264H13.8839H5.43359Z" fill="white"/>
<path d="M5.43359 14.4264H13.8839" stroke="#283042" stroke-width="1.255" stroke-linecap="round"/>
<path fill-rule="evenodd" clip-rule="evenodd" d="M5.43359 17.3014H13.8839H5.43359Z" fill="white"/>
<path d="M5.43359 17.3014H13.8839" stroke="#283042" stroke-width="1.255" stroke-linecap="round"/>
</g>
<defs>
<clipPath id="clip0_1_5528">
<rect width="23.0769" height="21.0833" fill="white" transform="translate(0.961426 2.95837)"/>
</clipPath>
</defs>
</svg>
