<svg width="19" height="20" viewBox="0 0 19 20" fill="none" xmlns="http://www.w3.org/2000/svg">
<g clip-path="url(#clip0_1_5437)">
<path d="M6.6499 4.80206C7.48147 2.55416 9.63781 0.952393 12.1668 0.952393C15.4159 0.952393 18.0499 3.59611 18.0499 6.85721C18.0499 9.38193 16.4712 11.5366 14.2505 12.381" stroke="white" stroke-linecap="round"/>
<path fill-rule="evenodd" clip-rule="evenodd" d="M6.64995 6.66663C9.79794 6.66663 12.35 9.22504 12.35 12.3809C12.35 15.5368 9.79794 18.0952 6.64995 18.0952C3.50197 18.0952 0.949951 15.5368 0.949951 12.3809C0.949951 9.22504 3.50197 6.66663 6.64995 6.66663Z" stroke="white" stroke-linecap="round"/>
<path d="M16.1499 14.2858L18.0499 16.6667L16.1499 19.0477" stroke="white" stroke-linecap="round"/>
<path d="M18.05 16.6666H13.3" stroke="white" stroke-linecap="round"/>
<path d="M2.8501 5.71423L0.950098 3.33328L2.8501 0.952329" stroke="white" stroke-linecap="round"/>
<path d="M0.949951 3.33337L5.69995 3.33337" stroke="white" stroke-linecap="round"/>
<path d="M9.86655 11.9223V12.6758H9.08555L8.49705 15.0188H7.58955L6.89655 11.9168L6.20355 15.0188H5.29605L4.70755 12.6758H3.92655V11.9223H4.52055L4.17405 10.5363H5.14205L5.42255 11.9223H6.12105L6.42355 10.5363H7.41905L7.72705 11.9223H8.42005L8.70055 10.5363H9.61905L9.27255 11.9223H9.86655ZM5.57655 12.6758L5.75805 13.5613L5.95055 12.6758H5.57655ZM8.09005 13.5778L8.27155 12.6758H7.89205L8.09005 13.5778Z" fill="white"/>
</g>
<defs>
<clipPath id="clip0_1_5437">
<rect width="19" height="20" fill="white"/>
</clipPath>
</defs>
</svg>
