<svg width="20" height="21" viewBox="0 0 20 21" fill="none" xmlns="http://www.w3.org/2000/svg">
<g clip-path="url(#clip0_1_5415)">
<mask id="path-1-inside-1_1_5415" fill="white">
<path fill-rule="evenodd" clip-rule="evenodd" d="M4 8V6.24623C4 6.24623 3.98567 1 8.98567 1C13.9857 1 14 6.24623 14 6.24623V8"/>
</mask>
<path d="M3 8C3 8.55228 3.44772 9 4 9C4.55229 9 5 8.55228 5 8H3ZM4 6.24623H5L5 6.2435L4 6.24623ZM14 6.24623H15L15 6.2435L14 6.24623ZM13 8C13 8.55228 13.4477 9 14 9C14.5523 9 15 8.55228 15 8H13ZM5 8V6.24623H3V8H5ZM4 6.24623C5 6.2435 5 6.24394 5 6.24437C5 6.24449 5 6.24489 5 6.24513C5 6.24559 5 6.24598 5 6.24629C5 6.24692 5 6.24724 5 6.24726C5 6.2473 5 6.24614 5.00003 6.24382C5.00009 6.23918 5.00024 6.22991 5.00064 6.21634C5.00143 6.18916 5.00317 6.14489 5.00702 6.08601C5.01474 5.96792 5.03078 5.79305 5.06392 5.58075C5.13097 5.15121 5.26401 4.59481 5.52153 4.05129C5.77771 3.5106 6.14476 3.00758 6.6712 2.63863C7.18896 2.27577 7.92079 2 8.98567 2V0C7.55054 0 6.40916 0.38001 5.52336 1.00081C4.64624 1.61553 4.07937 2.42408 3.71414 3.19494C3.35024 3.96298 3.17436 4.71813 3.08785 5.27226C3.04421 5.5518 3.02231 5.78679 3.01128 5.9556C3.00575 6.04017 3.00292 6.10862 3.00148 6.15829C3.00076 6.18314 3.00038 6.20333 3.00019 6.21854C3.0001 6.22615 3.00005 6.23251 3.00002 6.2376C3.00001 6.24014 3 6.24236 3 6.24425C3 6.2452 3 6.24607 3 6.24685C3 6.24724 3 6.24777 3 6.24797C3 6.24848 3 6.24896 4 6.24623ZM8.98567 2C10.0505 2 10.7849 2.27577 11.3061 2.63966C11.836 3.00962 12.2066 3.51388 12.4661 4.05531C12.7269 4.5995 12.863 5.15637 12.9324 5.58601C12.9668 5.79839 12.9838 5.97332 12.9921 6.09144C12.9963 6.15033 12.9983 6.19461 12.9992 6.22179C12.9997 6.23537 12.9999 6.24464 13 6.24928C13 6.2516 13 6.25276 13 6.25272C13 6.2527 13 6.25238 13 6.25176C13 6.25145 13 6.25106 13 6.25059C13 6.25036 13 6.24995 13 6.24983C13 6.24941 13 6.24896 14 6.24623C15 6.2435 15 6.24301 15 6.2425C15 6.24231 15 6.24178 15 6.24139C15 6.2406 15 6.23974 15 6.23879C15 6.23689 14.9999 6.23467 14.9999 6.23213C14.9999 6.22705 14.9998 6.22068 14.9996 6.21308C14.9994 6.19787 14.9989 6.17768 14.998 6.15283C14.9963 6.10317 14.9931 6.03473 14.9871 5.95017C14.9752 5.78139 14.952 5.54645 14.9068 5.267C14.8173 4.71297 14.6374 3.95828 14.2696 3.19092C13.9005 2.4208 13.33 1.6135 12.451 0.999784C11.5633 0.380008 10.4208 0 8.98567 0V2ZM13 6.24623V8H15V6.24623H13Z" fill="white" mask="url(#path-1-inside-1_1_5415)"/>
<path d="M1.5 6.5H16.5V19.5H1.5V6.5Z" stroke="white"/>
</g>
<defs>
<clipPath id="clip0_1_5415">
<rect width="16" height="19" fill="white" transform="translate(1 1)"/>
</clipPath>
</defs>
</svg>
