<svg width="19" height="20" viewBox="0 0 19 20" fill="none" xmlns="http://www.w3.org/2000/svg">
<path fill-rule="evenodd" clip-rule="evenodd" d="M9.60485 0.286022L9.27661 0.000366211L8.94837 0.286022L1.17176 7.05374L1 7.20321V7.43091V18.0659V18.5659H1.5H11.2208H11.7208V17.5659H11.2208H2V7.6586L9.27661 1.32602L16.5532 7.6586V12.265V12.765H17.5532V12.265V7.43091V7.20321L17.3815 7.05374L9.60485 0.286022ZM16.0672 15.1654V17.0825H14.137V18.0825H16.0672V19.9995H17.0672V18.0825H18.9974V17.0825H17.0672V15.1654H16.0672ZM5.3883 13.2152H4.8883V14.2152H5.3883H13.1649H13.6649V13.2152H13.1649H5.3883Z" fill="white"/>
</svg>
