<svg width="19" height="21" viewBox="0 0 19 21" fill="none" xmlns="http://www.w3.org/2000/svg">
<path fill-rule="evenodd" clip-rule="evenodd" d="M14.8333 18.9167C14.8333 19.515 14.3483 20 13.75 20C13.1517 20 12.6667 19.515 12.6667 18.9167C12.6667 18.3184 13.1517 17.8334 13.75 17.8334C14.3483 17.8334 14.8333 18.3184 14.8333 18.9167ZM15.8333 18.9167C15.8333 20.0673 14.9006 21 13.75 21C12.5994 21 11.6667 20.0673 11.6667 18.9167C11.6667 17.7661 12.5994 16.8334 13.75 16.8334C14.9006 16.8334 15.8333 17.7661 15.8333 18.9167ZM5.66667 18.9167C5.66667 19.5151 5.18164 20.0001 4.58333 20.0001C3.98502 20.0001 3.5 19.5151 3.5 18.9167C3.5 18.3184 3.98502 17.8334 4.58333 17.8334C5.18164 17.8334 5.66667 18.3184 5.66667 18.9167ZM6.66667 18.9167C6.66667 20.0673 5.73393 21.0001 4.58333 21.0001C3.43274 21.0001 2.5 20.0673 2.5 18.9167C2.5 17.7662 3.43274 16.8334 4.58333 16.8334C5.73393 16.8334 6.66667 17.7662 6.66667 18.9167Z" fill="white"/>
<path fill-rule="evenodd" clip-rule="evenodd" d="M15.8333 14.3334L10.8333 9.33337H2.5C0.5 9.33337 0 11 0 11.8334V16.8334C0 18.8334 1.66667 19.3334 2.5 19.3334H3V18.3334H2.5C2.24336 18.3334 1.83613 18.2482 1.5218 18.0218C1.25847 17.8322 1 17.5075 1 16.8334V11.8334C1 11.5767 1.08522 11.1695 1.31153 10.8552C1.50114 10.5918 1.82592 10.3334 2.5 10.3334H10.4191L15.1262 15.0405L15.4191 15.3334H15.8333H16.6667C16.7844 15.3334 16.9833 15.3769 17.124 15.4782C17.1843 15.5216 17.2295 15.572 17.2623 15.6356C17.2947 15.6984 17.3333 15.8095 17.3333 16V17.6667C17.3333 17.7845 17.2898 17.9834 17.1885 18.1241C17.1451 18.1844 17.0947 18.2295 17.0311 18.2624C16.9683 18.2948 16.8572 18.3334 16.6667 18.3334H15V19.3334H16.6667C18 19.3334 18.3333 18.2223 18.3333 17.6667V16C18.3333 14.6667 17.2222 14.3334 16.6667 14.3334H15.8333ZM12 19.3334V18.3334H6V19.3334H12Z" fill="white"/>
<path d="M9.08325 8.5C9.08325 8.77614 9.30711 9 9.58325 9C9.85939 9 10.0833 8.77614 10.0833 8.5H9.08325ZM15.7499 10.1667V10.6667H16.7499V10.1667H15.7499ZM10.0833 8.5V6.83333H9.08325V8.5H10.0833ZM10.0833 6.83333C10.0833 6.35779 10.23 5.63334 10.6557 5.04215C11.063 4.47646 11.7462 4 12.9166 4V3C11.4203 3 10.4368 3.63466 9.84415 4.45785C9.26981 5.25555 9.08325 6.19777 9.08325 6.83333H10.0833ZM12.9166 4C14.087 4 14.7702 4.47646 15.1775 5.04215C15.6031 5.63334 15.7499 6.35779 15.7499 6.83333H16.7499C16.7499 6.19777 16.5634 5.25555 15.989 4.45785C15.3963 3.63466 14.4129 3 12.9166 3V4ZM15.7499 6.83333V10.1667H16.7499V6.83333H15.7499Z" fill="white"/>
<path d="M15.8333 12.6666H16.6666C16.9444 12.6666 17.4999 12.5 17.4999 11.8333V11C17.4999 10.7222 17.3333 10.1666 16.6666 10.1666C15.9999 10.1666 14.1666 10.1666 13.3333 10.1666" stroke="white" stroke-linecap="round"/>
<path d="M12.9167 1V1.83333" stroke="white" stroke-linecap="round"/>
<path d="M8.99992 3.33329L8.33325 2.66663" stroke="white" stroke-linecap="round"/>
<path d="M16.6667 3.33329L17.3334 2.66663" stroke="white" stroke-linecap="round"/>
<path d="M8.33333 6.83337H7.5" stroke="white" stroke-linecap="round"/>
<path d="M17.5 6.83337H18.3333" stroke="white" stroke-linecap="round"/>
<path d="M12.9167 5.16663V8.08329" stroke="white" stroke-linecap="round"/>
<path d="M11.6667 6.41663H14.1667" stroke="white" stroke-linecap="round"/>
</svg>
