<svg width="24" height="26" viewBox="0 0 24 26" fill="none" xmlns="http://www.w3.org/2000/svg">
<path d="M8.55005 6.50252C9.55668 3.69264 12.167 1.69043 15.2284 1.69043C19.1615 1.69043 22.35 4.99508 22.35 9.07146C22.35 12.2274 20.4389 14.9207 17.7508 15.9761" stroke="#283042" stroke-linecap="round"/>
<path fill-rule="evenodd" clip-rule="evenodd" d="M8.5499 8.83337C12.3606 8.83337 15.4499 12.0314 15.4499 15.9762C15.4499 19.9211 12.3606 23.1191 8.5499 23.1191C4.73919 23.1191 1.6499 19.9211 1.6499 15.9762C1.6499 12.0314 4.73919 8.83337 8.5499 8.83337Z" stroke="#283042" stroke-linecap="round"/>
<path d="M20.05 18.3572L22.35 21.3334L20.05 24.3096" stroke="#283042" stroke-linecap="round"/>
<path d="M22.3501 21.3334H16.6001" stroke="#283042" stroke-linecap="round"/>
<path d="M3.94995 7.64282L1.64995 4.66663L3.94995 1.69044" stroke="#283042" stroke-linecap="round"/>
<path d="M1.6499 4.66663L7.3999 4.66663" stroke="#283042" stroke-linecap="round"/>
<path d="M12.221 15.189V16.148H11.227L10.478 19.13H9.323L8.441 15.182L7.559 19.13H6.404L5.655 16.148H4.661V15.189H5.417L4.976 13.425H6.208L6.565 15.189H7.454L7.839 13.425H9.106L9.498 15.189H10.38L10.737 13.425H11.906L11.465 15.189H12.221ZM6.761 16.148L6.992 17.275L7.237 16.148H6.761ZM9.96 17.296L10.191 16.148H9.708L9.96 17.296Z" fill="#283042"/>
</svg>
